<?xml version="1.0" encoding="utf-8"?>
<!-- Generator: Adobe Illustrator 16.0.0, SVG Export Plug-In . SVG Version: 6.00 Build 0)  -->
<!DOCTYPE svg PUBLIC "-//W3C//DTD SVG 1.1//EN" "http://www.w3.org/Graphics/SVG/1.1/DTD/svg11.dtd">
<svg version="1.1" id="Layer_1" xmlns="http://www.w3.org/2000/svg" xmlns:xlink="http://www.w3.org/1999/xlink" x="0px" y="0px"
	 width="500px" height="500px" viewBox="0 0 500 500" enable-background="new 0 0 500 500" xml:space="preserve">
<g>
	<g>
		<g>
			<path fill="#839C7C" d="M415.216,107.578c2.025,1.66,4.397,3.319,5.31,4.119c3.508,3.075,7.633,5.825,12.285,6.164
				c8.982,0.655,17.432-7.746,26.075-5.212c-3.983-1.437-6.235-5.508-8.8-8.877c-4.77-6.269-12.493-11.043-20.258-9.72
				c-3.924,0.668-7.434,2.796-10.697,5.072c-1.436,1.001-4.625,1.96-6.243,3.161c-1.886-4.121-9.732-16.208-18.139-19.029
				c-12.434-4.174-26.471,1.457-32.162,12.989c-0.544,1.103,0.906,1.904,1.621,0.947c7.175-9.609,19.512-16.247,31.186-10.021
				c10.788,5.754,14.103,17.433,18.941,27.723c-2.807,2.129-5.649,7.995-6.275,10.229c-1.437,5.123-1.481,10.527-2.455,15.758
				c-1.067,5.73-3.264,11.248-6.426,16.144c4.358-5.095,8.718-10.19,13.077-15.285c1.654-1.935,3.322-3.888,4.519-6.135
				c1.175-2.207,2.313-6.311,2.731-10.389c0.252,0.713,0.513,1.422,0.756,2.14c2.635,7.75,4.933,15.614,6.898,23.561
				c-2.721-0.444-6.288,6.654-6.938,8.971c-1.172,4.184-1.209,8.596-2.004,12.867c-0.871,4.678-2.664,9.183-5.246,13.18
				c3.559-4.16,7.118-8.32,10.677-12.479c1.351-1.579,2.713-3.175,3.689-5.009c0.864-1.624,1.704-4.504,2.112-7.492
				c0.259,1.231,0.516,2.464,0.759,3.699c5.008,25.466,6.587,51.605,4.669,77.489c-1.1,14.83-3.39,29.558-6.753,44.042
				c-0.334,1.441,1.878,2.058,2.222,0.612c11.549-48.48,9.876-99.967-4.093-147.776c0.498,0.505,1.021,0.978,1.534,1.414
				c2.829,2.398,6.338,4.009,10.021,4.493c5.013,0.657,10.303-0.632,15.094,0.823c-1.244-0.559-2.187-1.756-2.764-3.025
				c-0.696-1.531-1.005-3.212-1.646-4.768c-1.661-4.036-5.567-6.947-9.84-7.84c-4.272-0.894-8.821,0.107-12.593,2.305
				c-0.543,0.316-1.07,0.673-1.482,1.077c-0.259-0.822-0.511-1.647-0.776-2.468c-1.458-4.502-3.004-9.029-4.67-13.527
				c-0.146-0.521-0.325-1.008-0.541-1.447C417.52,113.213,416.398,110.381,415.216,107.578z"/>
			<path fill="#839C7C" d="M452.904,145.752c0.257,0.115,0.521,0.213,0.804,0.268C453.442,145.92,453.174,145.834,452.904,145.752z"
				/>
		</g>
		<g id="XMLID_3731_">
			<path fill="#F7D688" d="M428.148,199.652c-1.113,1.038-2.44,2.018-3.963,2.056c-0.802,0.021-1.59-0.228-2.392-0.245
				c-0.802-0.017-1.709,0.286-2.018,1.027c-0.312,0.746,0.146,1.642,0.837,2.062c0.69,0.421,1.542,0.467,2.35,0.427
				c1.745-0.085,3.473-0.521,5.049-1.274c-0.75,1.266-1.321,2.637-1.691,4.061c-0.26,0.999-0.332,2.26,0.507,2.86
				c0.719,0.515,1.738,0.243,2.484-0.23c0.819-0.521,1.519-1.305,1.724-2.254c0.336-1.557-0.693-3.221-0.177-4.728
				c0.332-0.97,1.22-1.616,1.905-2.378c0.609-0.676,1.08-1.478,1.372-2.34c0.09-0.264,0.164-0.545,0.111-0.819
				c-0.214-1.133-2.037-1.081-2.879-0.816C430.115,197.453,429.075,198.787,428.148,199.652z"/>
			<path fill="#EC9F45" d="M431.764,196.047c-0.491,0.274-1.006,0.582-1.259,1.085c-0.254,0.502-0.101,1.248,0.437,1.418
				c0.404,0.129,0.152,1.017,0.51,0.786c0.71-0.455-0.689,0.486,0,0c-0.348,1.992,1.449,0.569,0.633,0.985
				c-0.157,0.081-0.187,0.313-0.181,0.491c0.014,0.409,0.581,0.598,0.944,0.41c0.364-0.188,0.557-0.588,0.725-0.962
				c0.411-0.913,0.822-1.826,1.233-2.739c0.524-1.166,1.217-2.39,1.487-3.627C434.775,194.164,433.131,195.285,431.764,196.047z"/>
		</g>
		<g id="XMLID_3730_">
			<path fill="#F7D688" d="M443.43,205.322c1.018,0.835,2.217,1.609,3.532,1.56c0.693-0.026,1.36-0.283,2.052-0.342
				s1.49,0.154,1.797,0.776c0.311,0.627-0.036,1.426-0.609,1.826c-0.574,0.4-1.307,0.486-2.006,0.496
				c-1.511,0.021-3.025-0.262-4.428-0.826c0.716,1.052,1.283,2.205,1.681,3.413c0.278,0.849,0.41,1.933-0.282,2.497
				c-0.592,0.483-1.486,0.305-2.156-0.063c-0.736-0.405-1.383-1.044-1.61-1.852c-0.375-1.326,0.423-2.818-0.104-4.092
				c-0.34-0.818-1.142-1.329-1.775-1.948c-0.563-0.551-1.012-1.217-1.312-1.945c-0.092-0.224-0.17-0.462-0.141-0.702
				c0.123-0.989,1.7-1.044,2.441-0.86C441.611,203.531,442.582,204.626,443.43,205.322z"/>
			<path fill="#EC9F45" d="M440.112,202.406c0.439,0.21,0.899,0.448,1.146,0.868s0.154,1.072-0.3,1.248
				c-0.342,0.133-0.076,0.886-0.397,0.707c-0.638-0.355,0.622,0.382,0,0c0.409,1.7-1.22,0.569-0.492,0.885
				c0.14,0.061,0.178,0.261,0.183,0.413c0.01,0.354-0.469,0.549-0.793,0.406c-0.325-0.143-0.513-0.478-0.679-0.791
				c-0.404-0.766-0.809-1.531-1.213-2.298c-0.516-0.978-1.181-1.996-1.48-3.05C437.41,200.945,438.891,201.823,440.112,202.406z"/>
		</g>
		<g id="XMLID_3729_">
			<path fill="#F7D688" d="M430.112,218.76c-0.944,0.881-2.07,1.712-3.361,1.744c-0.681,0.017-1.349-0.193-2.029-0.207
				c-0.681-0.016-1.45,0.242-1.712,0.87c-0.265,0.634,0.124,1.394,0.71,1.75s1.309,0.396,1.993,0.362
				c1.48-0.073,2.946-0.443,4.283-1.082c-0.636,1.074-1.12,2.237-1.435,3.445c-0.22,0.848-0.281,1.917,0.431,2.427
				c0.609,0.437,1.475,0.206,2.107-0.196c0.695-0.441,1.288-1.105,1.462-1.911c0.285-1.321-0.588-2.732-0.15-4.012
				c0.282-0.822,1.035-1.371,1.617-2.018c0.518-0.573,0.916-1.253,1.164-1.984c0.076-0.225,0.139-0.463,0.095-0.695
				c-0.182-0.961-1.729-0.917-2.443-0.692C431.781,216.895,430.899,218.026,430.112,218.76z"/>
			<path fill="#EC9F45" d="M433.18,215.701c-0.417,0.232-0.854,0.494-1.068,0.92c-0.215,0.427-0.084,1.059,0.371,1.203
				c0.343,0.109,0.129,0.862,0.433,0.668c0.602-0.387-0.585,0.412,0,0c-0.295,1.688,1.229,0.482,0.537,0.835
				c-0.134,0.068-0.159,0.267-0.153,0.417c0.012,0.347,0.492,0.508,0.801,0.348c0.309-0.159,0.473-0.499,0.615-0.815
				c0.349-0.774,0.697-1.55,1.046-2.324c0.444-0.989,1.032-2.027,1.262-3.077C435.735,214.104,434.34,215.055,433.18,215.701z"/>
		</g>
		<g id="XMLID_3728_">
			<path fill="#F7D688" d="M443.077,223.57c0.863,0.709,1.881,1.365,2.997,1.323c0.589-0.022,1.154-0.24,1.74-0.29
				c0.587-0.05,1.265,0.131,1.525,0.659c0.263,0.531-0.031,1.209-0.518,1.549s-1.108,0.413-1.701,0.421
				c-1.282,0.018-2.567-0.222-3.757-0.701c0.607,0.893,1.089,1.871,1.426,2.896c0.236,0.72,0.348,1.64-0.239,2.118
				c-0.503,0.41-1.262,0.258-1.83-0.055c-0.624-0.343-1.172-0.885-1.366-1.57c-0.317-1.125,0.358-2.392-0.089-3.472
				c-0.287-0.694-0.968-1.127-1.505-1.653c-0.478-0.467-0.859-1.032-1.113-1.65c-0.078-0.188-0.145-0.392-0.119-0.595
				c0.104-0.84,1.442-0.886,2.071-0.73C441.535,222.051,442.358,222.979,443.077,223.57z"/>
			<path fill="#EC9F45" d="M440.263,221.097c0.373,0.178,0.764,0.38,0.973,0.736c0.208,0.356,0.131,0.909-0.255,1.059
				c-0.29,0.113-0.064,0.751-0.337,0.6c-0.541-0.301,0.527,0.324,0,0c0.347,1.442-1.035,0.483-0.418,0.751
				c0.119,0.052,0.151,0.221,0.155,0.351c0.009,0.301-0.398,0.465-0.674,0.345c-0.274-0.121-0.435-0.405-0.574-0.672
				c-0.344-0.649-0.687-1.299-1.029-1.949c-0.438-0.829-1.002-1.693-1.257-2.588C437.971,219.856,439.227,220.602,440.263,221.097z"
				/>
		</g>
		<g id="XMLID_3727_">
			<path fill="#F7D688" d="M430.93,237.912c-0.757,0.707-1.66,1.373-2.695,1.399c-0.546,0.013-1.082-0.155-1.628-0.167
				s-1.162,0.195-1.372,0.698c-0.212,0.508,0.099,1.118,0.569,1.403c0.47,0.286,1.049,0.317,1.599,0.291
				c1.188-0.059,2.362-0.355,3.435-0.867c-0.51,0.86-0.898,1.793-1.15,2.762c-0.177,0.68-0.227,1.538,0.345,1.946
				c0.489,0.351,1.183,0.165,1.69-0.157c0.558-0.354,1.033-0.887,1.173-1.532c0.229-1.06-0.472-2.191-0.121-3.218
				c0.227-0.659,0.83-1.1,1.297-1.617c0.415-0.46,0.734-1.005,0.934-1.592c0.061-0.18,0.111-0.371,0.076-0.558
				c-0.146-0.771-1.387-0.735-1.96-0.556C432.269,236.416,431.561,237.324,430.93,237.912z"/>
			<path fill="#EC9F45" d="M433.39,235.46c-0.334,0.187-0.684,0.396-0.856,0.737c-0.172,0.342-0.067,0.85,0.297,0.965
				c0.275,0.088,0.104,0.691,0.348,0.535c0.482-0.31-0.469,0.331,0,0c-0.237,1.355,0.985,0.388,0.431,0.671
				c-0.107,0.055-0.128,0.213-0.123,0.333c0.009,0.279,0.395,0.408,0.643,0.28c0.247-0.128,0.378-0.4,0.493-0.655
				c0.279-0.621,0.559-1.242,0.838-1.863c0.357-0.793,0.828-1.626,1.012-2.468C435.438,234.179,434.32,234.941,433.39,235.46z"/>
		</g>
		<g id="XMLID_3726_">
			<path fill="#F7D688" d="M441.029,242.051c0.692,0.568,1.508,1.096,2.403,1.062c0.472-0.018,0.926-0.192,1.396-0.232
				c0.471-0.04,1.015,0.104,1.224,0.528c0.21,0.427-0.025,0.97-0.415,1.242c-0.391,0.272-0.889,0.331-1.364,0.338
				c-1.028,0.014-2.06-0.178-3.013-0.562c0.487,0.715,0.873,1.499,1.144,2.321c0.189,0.577,0.278,1.315-0.192,1.699
				c-0.403,0.329-1.012,0.207-1.467-0.044c-0.501-0.275-0.94-0.709-1.097-1.259c-0.255-0.902,0.288-1.918-0.071-2.784
				c-0.23-0.558-0.775-0.904-1.207-1.326c-0.383-0.374-0.688-0.828-0.893-1.323c-0.063-0.152-0.115-0.314-0.096-0.478
				c0.084-0.673,1.157-0.71,1.661-0.586C439.793,240.832,440.453,241.578,441.029,242.051z"/>
			<path fill="#EC9F45" d="M438.772,240.067c0.299,0.143,0.612,0.305,0.779,0.591c0.168,0.285,0.105,0.729-0.204,0.85
				c-0.232,0.09-0.052,0.602-0.271,0.48c-0.434-0.242,0.423,0.26,0,0c0.278,1.156-0.829,0.388-0.335,0.602
				c0.096,0.041,0.121,0.178,0.124,0.281c0.008,0.241-0.318,0.373-0.539,0.276s-0.349-0.325-0.462-0.538
				c-0.274-0.521-0.55-1.042-0.825-1.563c-0.351-0.665-0.803-1.358-1.007-2.075C436.934,239.073,437.941,239.671,438.772,240.067z"
				/>
		</g>
		<g id="XMLID_3725_">
			<path fill="#F7D688" d="M429.64,253.707c-0.796,0.662-1.735,1.276-2.771,1.243c-0.546-0.018-1.071-0.216-1.615-0.259
				c-0.545-0.043-1.172,0.129-1.411,0.619c-0.24,0.495,0.036,1.121,0.489,1.434s1.029,0.377,1.579,0.381
				c1.189,0.01,2.379-0.22,3.479-0.671c-0.559,0.831-1,1.74-1.307,2.693c-0.215,0.668-0.313,1.521,0.234,1.962
				c0.468,0.378,1.171,0.232,1.695-0.061c0.577-0.321,1.083-0.826,1.259-1.464c0.288-1.045-0.347-2.214,0.063-3.218
				c0.263-0.646,0.892-1.052,1.387-1.542c0.44-0.436,0.79-0.962,1.022-1.536c0.071-0.176,0.132-0.364,0.107-0.552
				c-0.102-0.778-1.342-0.813-1.925-0.666C431.062,252.29,430.303,253.156,429.64,253.707z"/>
			<path fill="#EC9F45" d="M432.235,251.398c-0.345,0.167-0.706,0.356-0.897,0.688c-0.191,0.332-0.116,0.845,0.242,0.98
				c0.27,0.104,0.064,0.696,0.315,0.555c0.5-0.282-0.487,0.303,0,0c-0.313,1.339,0.962,0.442,0.392,0.693
				c-0.109,0.049-0.139,0.206-0.142,0.326c-0.006,0.278,0.372,0.429,0.626,0.315c0.255-0.114,0.4-0.378,0.529-0.625
				c0.314-0.604,0.629-1.209,0.943-1.813c0.401-0.771,0.919-1.576,1.15-2.406C434.354,250.236,433.193,250.934,432.235,251.398z"/>
		</g>
		<g id="XMLID_3724_">
			<path fill="#F7D688" d="M439.801,258.15c0.658,0.606,1.443,1.179,2.339,1.195c0.472,0.01,0.935-0.139,1.407-0.152
				c0.472-0.013,1.006,0.163,1.19,0.598c0.187,0.438-0.08,0.967-0.485,1.217c-0.404,0.249-0.906,0.279-1.381,0.259
				c-1.027-0.044-2.045-0.295-2.976-0.732c0.445,0.742,0.786,1.547,1.009,2.384c0.157,0.587,0.204,1.328-0.288,1.686
				c-0.421,0.305-1.021,0.148-1.462-0.127c-0.484-0.304-0.898-0.763-1.022-1.32c-0.203-0.915,0.396-1.898,0.087-2.783
				c-0.198-0.569-0.724-0.947-1.13-1.393c-0.36-0.396-0.641-0.866-0.815-1.372c-0.054-0.155-0.098-0.32-0.068-0.481
				c0.122-0.668,1.195-0.644,1.691-0.491C438.635,256.863,439.252,257.645,439.801,258.15z"/>
			<path fill="#EC9F45" d="M437.66,256.041c0.29,0.16,0.594,0.34,0.745,0.635c0.15,0.294,0.063,0.733-0.252,0.836
				c-0.238,0.077-0.087,0.599-0.298,0.465c-0.419-0.267,0.407,0.283,0,0c0.212,1.17-0.851,0.34-0.369,0.581
				c0.093,0.047,0.111,0.185,0.108,0.288c-0.007,0.241-0.34,0.354-0.555,0.245s-0.329-0.344-0.43-0.563
				c-0.245-0.535-0.49-1.071-0.735-1.607c-0.313-0.685-0.725-1.402-0.888-2.129C435.881,254.944,436.854,255.598,437.66,256.041z"/>
		</g>
		<g id="XMLID_3723_">
			<path fill="#F7D688" d="M427.345,269.416c-0.796,0.662-1.735,1.276-2.771,1.243c-0.545-0.018-1.07-0.216-1.615-0.259
				c-0.544-0.043-1.171,0.128-1.41,0.619c-0.24,0.494,0.036,1.121,0.488,1.434c0.453,0.312,1.03,0.376,1.58,0.381
				c1.188,0.009,2.379-0.221,3.479-0.671c-0.558,0.83-0.999,1.74-1.306,2.692c-0.215,0.669-0.313,1.522,0.234,1.963
				c0.468,0.377,1.171,0.232,1.695-0.061c0.577-0.322,1.082-0.827,1.258-1.464c0.289-1.045-0.346-2.215,0.063-3.219
				c0.263-0.646,0.891-1.051,1.387-1.541c0.439-0.437,0.79-0.962,1.022-1.536c0.071-0.176,0.132-0.364,0.107-0.553
				c-0.102-0.777-1.343-0.813-1.925-0.666C428.766,267.998,428.008,268.864,427.345,269.416z"/>
			<path fill="#EC9F45" d="M429.94,267.107c-0.345,0.167-0.706,0.355-0.897,0.688s-0.116,0.844,0.241,0.98
				c0.271,0.103,0.064,0.696,0.316,0.554c0.5-0.282-0.487,0.304,0,0c-0.313,1.339,0.962,0.442,0.392,0.693
				c-0.109,0.049-0.139,0.206-0.142,0.326c-0.007,0.279,0.371,0.43,0.626,0.315c0.254-0.113,0.4-0.378,0.529-0.625
				c0.314-0.604,0.629-1.209,0.943-1.813c0.401-0.771,0.919-1.576,1.15-2.406C432.059,265.944,430.898,266.643,429.94,267.107z"/>
		</g>
		<g id="XMLID_3722_">
			<path fill="#F7D688" d="M437.506,273.858c0.658,0.607,1.442,1.18,2.339,1.196c0.472,0.009,0.935-0.14,1.406-0.152
				c0.473-0.014,1.007,0.162,1.191,0.597c0.186,0.438-0.08,0.967-0.485,1.217c-0.404,0.25-0.906,0.28-1.381,0.26
				c-1.027-0.045-2.046-0.295-2.977-0.732c0.446,0.742,0.787,1.547,1.01,2.383c0.156,0.587,0.204,1.329-0.288,1.686
				c-0.421,0.306-1.021,0.149-1.462-0.127c-0.484-0.304-0.899-0.762-1.022-1.319c-0.204-0.916,0.396-1.898,0.087-2.784
				c-0.198-0.569-0.724-0.946-1.13-1.392c-0.361-0.396-0.641-0.866-0.815-1.373c-0.054-0.154-0.099-0.32-0.069-0.481
				c0.122-0.667,1.196-0.644,1.692-0.49C436.34,272.571,436.957,273.354,437.506,273.858z"/>
			<path fill="#EC9F45" d="M435.365,271.75c0.29,0.159,0.594,0.339,0.744,0.634c0.151,0.295,0.063,0.734-0.252,0.836
				c-0.237,0.077-0.086,0.599-0.297,0.465c-0.42-0.266,0.407,0.283,0,0c0.212,1.171-0.851,0.34-0.369,0.582
				c0.093,0.047,0.111,0.184,0.108,0.288c-0.007,0.24-0.34,0.354-0.555,0.245c-0.215-0.109-0.33-0.345-0.43-0.563
				c-0.245-0.536-0.49-1.072-0.735-1.608c-0.313-0.684-0.725-1.401-0.888-2.129C433.586,270.652,434.558,271.307,435.365,271.75z"/>
		</g>
		<g id="XMLID_3721_">
			<path fill="#F7D688" d="M425.98,283.742c-0.577,0.479-1.258,0.925-2.008,0.9c-0.396-0.012-0.776-0.156-1.171-0.188
				s-0.849,0.094-1.022,0.449c-0.174,0.358,0.026,0.813,0.354,1.038c0.328,0.227,0.746,0.273,1.145,0.276
				c0.861,0.007,1.724-0.159,2.521-0.486c-0.405,0.603-0.725,1.262-0.946,1.951c-0.156,0.484-0.228,1.104,0.169,1.423
				c0.339,0.273,0.849,0.168,1.229-0.044c0.419-0.233,0.784-0.6,0.912-1.061c0.209-0.758-0.251-1.605,0.046-2.333
				c0.19-0.468,0.646-0.761,1.005-1.116c0.318-0.316,0.572-0.697,0.74-1.113c0.052-0.128,0.096-0.265,0.078-0.4
				c-0.073-0.563-0.973-0.59-1.395-0.482C427.01,282.715,426.461,283.343,425.98,283.742z"/>
			<path fill="#EC9F45" d="M427.861,282.069c-0.25,0.12-0.512,0.258-0.65,0.498s-0.084,0.611,0.175,0.711
				c0.196,0.074,0.047,0.504,0.229,0.401c0.362-0.205-0.354,0.22,0,0c-0.228,0.97,0.697,0.32,0.284,0.502
				c-0.08,0.035-0.102,0.149-0.104,0.236c-0.005,0.202,0.27,0.312,0.454,0.229c0.184-0.082,0.29-0.273,0.384-0.453
				c0.228-0.438,0.455-0.875,0.683-1.313c0.291-0.559,0.667-1.142,0.834-1.743C429.396,281.227,428.555,281.732,427.861,282.069z"/>
		</g>
		<g id="XMLID_3720_">
			<path fill="#F7D688" d="M433.343,286.961c0.478,0.44,1.046,0.855,1.695,0.867c0.342,0.007,0.678-0.101,1.02-0.11
				s0.729,0.117,0.863,0.433c0.135,0.317-0.059,0.701-0.352,0.882c-0.294,0.181-0.657,0.202-1.001,0.188
				c-0.745-0.032-1.482-0.213-2.156-0.53c0.322,0.537,0.569,1.121,0.731,1.727c0.113,0.426,0.147,0.963-0.209,1.222
				c-0.306,0.222-0.74,0.108-1.06-0.092c-0.352-0.22-0.651-0.553-0.741-0.956c-0.147-0.664,0.287-1.376,0.063-2.018
				c-0.145-0.412-0.524-0.687-0.819-1.009c-0.261-0.287-0.464-0.628-0.591-0.994c-0.039-0.112-0.071-0.232-0.05-0.35
				c0.089-0.483,0.866-0.466,1.227-0.355C432.499,286.029,432.945,286.595,433.343,286.961z"/>
			<path fill="#EC9F45" d="M431.792,285.434c0.21,0.115,0.431,0.246,0.54,0.459c0.109,0.214,0.046,0.532-0.183,0.606
				c-0.173,0.056-0.063,0.434-0.216,0.337c-0.304-0.193,0.296,0.205,0,0c0.153,0.848-0.616,0.246-0.268,0.421
				c0.067,0.034,0.081,0.134,0.079,0.209c-0.005,0.175-0.247,0.257-0.402,0.178s-0.238-0.25-0.312-0.408
				c-0.178-0.389-0.355-0.776-0.532-1.165c-0.227-0.496-0.525-1.016-0.644-1.543C430.503,284.639,431.207,285.112,431.792,285.434z"
				/>
		</g>
	</g>
	<g>
		<rect x="78.586" y="92.615" fill="#222B3B" width="328.123" height="328.124"/>
		<linearGradient id="SVGID_1_" gradientUnits="userSpaceOnUse" x1="75.5225" y1="256.6777" x2="409.7725" y2="256.6777">
			<stop  offset="0" style="stop-color:#9A7A60"/>
			<stop  offset="0.077" style="stop-color:#CAA987"/>
			<stop  offset="0.153" style="stop-color:#D5B996"/>
			<stop  offset="0.27" style="stop-color:#E2CDAB"/>
			<stop  offset="0.3836" style="stop-color:#EBDAB8"/>
			<stop  offset="0.4892" style="stop-color:#EEDEBC"/>
			<stop  offset="0.5861" style="stop-color:#EBDAB8"/>
			<stop  offset="0.687" style="stop-color:#E3CEAB"/>
			<stop  offset="0.7895" style="stop-color:#D5BB97"/>
			<stop  offset="0.8616" style="stop-color:#CAA987"/>
			<stop  offset="1" style="stop-color:#9A7A60"/>
		</linearGradient>
		<path fill="url(#SVGID_1_)" d="M75.522,89.553v334.25h334.25V89.553H75.522z M406.709,420.739H78.586V92.615h328.123V420.739z"/>
	</g>
	<g>
		
			<rect x="78.585" y="92.616" transform="matrix(-0.1511 -0.9885 0.9885 -0.1511 25.5935 535.3322)" opacity="0.6" fill="#222B3B" width="328.124" height="328.123"/>
		<linearGradient id="SVGID_2_" gradientUnits="userSpaceOnUse" x1="52.1836" y1="256.6787" x2="433.1123" y2="256.6787">
			<stop  offset="0" style="stop-color:#E0B8B8"/>
			<stop  offset="0.1231" style="stop-color:#E5BCAD"/>
			<stop  offset="0.2623" style="stop-color:#EDE3E1"/>
			<stop  offset="0.3672" style="stop-color:#EDE3E1"/>
			<stop  offset="0.4552" style="stop-color:#EBD9D2"/>
			<stop  offset="0.6304" style="stop-color:#E8C9BD"/>
			<stop  offset="0.8031" style="stop-color:#E5BFB1"/>
			<stop  offset="0.9689" style="stop-color:#E5BCAD"/>
			<stop  offset="1" style="stop-color:#E5BCAD"/>
		</linearGradient>
		<path fill="url(#SVGID_2_)" d="M382.825,67.729l-0.231-1.512L53.695,116.505l-1.512,0.23l32.245,210.873l5.274,34.507
			l12.769,83.515l0.231,1.511l25.834-3.951l3.316-0.505l1.843-0.284l3.634-0.554l294.271-44.988l1.511-0.231L382.825,67.729z
			 M105.268,443.656L55.673,119.301l324.352-49.595l49.6,324.351L105.268,443.656z"/>
	</g>
	<g>
		<g>
			<path fill="#839C7C" d="M88.605,413.821c-7.56-13.432-15.59-26.657-20.919-41.141c-11.181-30.392-10.457-63.755-4.113-95.114
				c1.943-9.606,4.386-19.118,7.131-28.525c2.79-9.563,6.14-18.954,8.881-28.527c0.253-0.884-1.171-1.399-1.534-0.546
				c-6.812,16-11.779,33.156-15.64,50.091c-3.731,16.368-6.074,33.098-6.13,49.906c-0.052,15.64,1.885,31.357,6.434,46.346
				c4.345,14.311,11.435,27.435,18.801,40.375c2.343,4.116,4.703,8.237,6.991,12.396C88.466,417.33,88.549,415.562,88.605,413.821z"
				/>
			<g>
				<path id="XMLID_3719_" fill="#839C7C" d="M65.379,393.43c-6.555-0.791-13.465,1.115-19.669-1.143
					c2.046,0.375,3.572,2.141,4.453,4.025c0.881,1.884,1.284,3.957,2.096,5.872c2.106,4.969,6.974,8.518,12.268,9.565
					c5.294,1.049,10.905-0.247,15.539-3.014c1.875-1.119,3.611-2.62,2.396-4.742c-1.121-1.957-2.915-3.711-4.635-5.14
					C74.298,395.926,69.938,393.98,65.379,393.43z"/>
				<g id="XMLID_3718_">
					<path fill="#F7D688" d="M68.928,316.822c1.601-0.99,3.446-1.859,5.301-1.539c0.978,0.17,1.873,0.659,2.842,0.873
						c0.969,0.215,2.141,0.064,2.694-0.759c0.558-0.829,0.219-2.026-0.518-2.702c-0.737-0.676-1.759-0.938-2.747-1.084
						c-2.137-0.316-4.337-0.203-6.43,0.33c1.214-1.354,2.236-2.88,3.028-4.517c0.556-1.149,0.947-2.66,0.074-3.591
						c-0.747-0.797-2.049-0.714-3.067-0.318c-1.119,0.434-2.156,1.215-2.633,2.316c-0.782,1.808,0.064,4.073-0.925,5.777
						c-0.636,1.096-1.868,1.666-2.884,2.424c-0.902,0.673-1.665,1.532-2.228,2.507c-0.172,0.299-0.329,0.622-0.333,0.967
						c-0.013,1.425,2.211,1.802,3.296,1.684C66.014,319.015,67.596,317.647,68.928,316.822z"/>
					<path fill="#EC9F45" d="M63.676,320.323c0.662-0.214,1.359-0.464,1.788-1.012c0.428-0.549,0.422-1.489-0.188-1.825
						c-0.461-0.254,0.059-1.27-0.43-1.077c-0.971,0.382,0.953-0.423,0,0c0.901-2.33-1.62-1.039-0.53-1.347
						c0.21-0.06,0.302-0.336,0.338-0.551c0.082-0.5-0.561-0.866-1.047-0.726c-0.486,0.14-0.817,0.579-1.11,0.991
						c-0.719,1.009-1.437,2.017-2.155,3.025c-0.916,1.287-2.051,2.604-2.677,4.04C59.57,321.881,61.835,320.918,63.676,320.323z"/>
				</g>
				<g id="XMLID_3717_">
					<path fill="#F7D688" d="M50.357,307.768c-1.033-1.259-2.3-2.486-3.908-2.742c-0.848-0.136-1.718,0.015-2.57-0.081
						c-0.853-0.095-1.771-0.546-1.993-1.374c-0.224-0.835,0.389-1.721,1.181-2.067c0.791-0.348,1.701-0.275,2.551-0.119
						c1.838,0.339,3.606,1.047,5.171,2.068c-0.615-1.448-1.025-2.982-1.216-4.544c-0.134-1.096-0.031-2.442,0.943-2.96
						c0.835-0.443,1.877-0.011,2.6,0.597c0.795,0.669,1.426,1.599,1.508,2.634c0.135,1.698-1.192,3.315-0.859,4.986
						c0.215,1.075,1.063,1.887,1.683,2.791c0.55,0.804,0.935,1.72,1.122,2.675c0.058,0.293,0.096,0.602,0.002,0.885
						c-0.388,1.17-2.313,0.856-3.168,0.456C52.13,310.377,51.218,308.815,50.357,307.768z"/>
					<path fill="#EC9F45" d="M53.678,312.102c-0.482-0.36-0.983-0.76-1.181-1.328s0.071-1.338,0.664-1.441
						c0.448-0.079,0.307-1.056,0.653-0.762c0.688,0.584-0.662-0.612,0,0c-0.087-2.16,1.616-0.397,0.811-0.954
						c-0.156-0.107-0.154-0.359-0.122-0.546c0.072-0.432,0.7-0.552,1.06-0.301c0.358,0.251,0.506,0.703,0.632,1.123
						c0.306,1.025,0.611,2.052,0.917,3.078c0.391,1.31,0.951,2.706,1.062,4.056C56.603,314.525,55.019,313.104,53.678,312.102z"/>
				</g>
				<g id="XMLID_3716_">
					<path fill="#F7D688" d="M67.396,296.887c1.357-0.841,2.923-1.578,4.497-1.306c0.829,0.144,1.589,0.559,2.411,0.74
						c0.821,0.182,1.816,0.056,2.285-0.644c0.474-0.704,0.186-1.72-0.439-2.293c-0.624-0.573-1.491-0.795-2.33-0.919
						c-1.813-0.269-3.679-0.173-5.455,0.279c1.03-1.148,1.897-2.442,2.569-3.832c0.472-0.975,0.804-2.257,0.063-3.047
						c-0.634-0.676-1.738-0.604-2.603-0.27c-0.95,0.368-1.829,1.031-2.234,1.966c-0.664,1.533,0.055,3.455-0.784,4.9
						c-0.539,0.93-1.585,1.414-2.446,2.058c-0.766,0.571-1.413,1.299-1.891,2.126c-0.146,0.254-0.279,0.528-0.282,0.82
						c-0.011,1.209,1.876,1.529,2.796,1.429C64.923,298.747,66.266,297.587,67.396,296.887z"/>
					<path fill="#EC9F45" d="M62.939,299.856c0.563-0.182,1.154-0.394,1.518-0.858s0.357-1.264-0.159-1.549
						c-0.391-0.215,0.051-1.076-0.364-0.913c-0.823,0.324,0.809-0.359,0,0c0.765-1.978-1.374-0.882-0.45-1.143
						c0.179-0.051,0.257-0.285,0.286-0.468c0.07-0.424-0.475-0.734-0.888-0.615c-0.413,0.118-0.692,0.491-0.942,0.841
						c-0.609,0.855-1.219,1.711-1.827,2.566c-0.778,1.093-1.741,2.21-2.271,3.428C59.457,301.178,61.378,300.361,62.939,299.856z"/>
				</g>
				<g id="XMLID_3715_">
					<path fill="#F7D688" d="M52.833,287.93c-0.876-1.067-1.951-2.109-3.315-2.326c-0.72-0.114-1.457,0.013-2.181-0.068
						s-1.502-0.463-1.691-1.166c-0.19-0.709,0.329-1.459,1.001-1.754s1.443-0.233,2.165-0.101c1.56,0.287,3.06,0.888,4.387,1.755
						c-0.521-1.229-0.87-2.531-1.031-3.855c-0.113-0.93-0.027-2.072,0.8-2.512c0.709-0.376,1.593-0.009,2.206,0.507
						c0.675,0.567,1.209,1.355,1.278,2.234c0.115,1.44-1.011,2.813-0.728,4.23c0.182,0.912,0.901,1.601,1.427,2.368
						c0.467,0.682,0.793,1.459,0.952,2.27c0.049,0.248,0.081,0.51,0.002,0.75c-0.329,0.992-1.963,0.727-2.688,0.387
						C54.337,290.145,53.563,288.819,52.833,287.93z"/>
					<path fill="#EC9F45" d="M55.65,291.607c-0.409-0.306-0.835-0.645-1.002-1.127s0.061-1.135,0.563-1.223
						c0.38-0.067,0.26-0.896,0.554-0.646c0.583,0.495-0.562-0.52,0,0c-0.073-1.832,1.371-0.337,0.688-0.81
						c-0.132-0.091-0.13-0.305-0.104-0.463c0.062-0.366,0.595-0.468,0.899-0.255s0.43,0.596,0.535,0.952
						c0.26,0.87,0.52,1.741,0.779,2.611c0.331,1.111,0.807,2.296,0.9,3.441C58.132,293.663,56.787,292.457,55.65,291.607z"/>
				</g>
				<g id="XMLID_3714_">
					<path fill="#F7D688" d="M69.592,277.284c1.089-0.675,2.345-1.266,3.606-1.048c0.665,0.115,1.274,0.449,1.934,0.595
						s1.456,0.044,1.833-0.517c0.379-0.564,0.148-1.379-0.353-1.839s-1.196-0.638-1.869-0.737c-1.453-0.215-2.95-0.139-4.374,0.225
						c0.826-0.922,1.521-1.959,2.061-3.073c0.378-0.781,0.645-1.81,0.051-2.443c-0.509-0.542-1.395-0.485-2.087-0.217
						c-0.762,0.296-1.468,0.827-1.792,1.577c-0.532,1.229,0.044,2.771-0.629,3.93c-0.433,0.746-1.271,1.134-1.962,1.649
						c-0.614,0.458-1.133,1.043-1.516,1.706c-0.117,0.203-0.225,0.423-0.227,0.657c-0.009,0.97,1.504,1.227,2.242,1.146
						C67.608,278.775,68.686,277.846,69.592,277.284z"/>
					<path fill="#EC9F45" d="M66.019,279.665c0.45-0.146,0.925-0.315,1.216-0.688c0.292-0.373,0.287-1.013-0.127-1.241
						c-0.313-0.173,0.04-0.863-0.292-0.732c-0.661,0.26,0.647-0.288,0,0c0.613-1.586-1.103-0.707-0.361-0.917
						c0.144-0.04,0.206-0.228,0.229-0.375c0.056-0.34-0.381-0.589-0.712-0.493c-0.331,0.095-0.556,0.394-0.755,0.675
						c-0.489,0.686-0.978,1.372-1.467,2.058c-0.623,0.876-1.396,1.772-1.821,2.749C63.225,280.726,64.766,280.07,66.019,279.665z"/>
				</g>
				<g id="XMLID_3713_">
					<path fill="#F7D688" d="M57.913,270.102c-0.702-0.856-1.564-1.691-2.659-1.866c-0.576-0.092-1.168,0.011-1.748-0.055
						c-0.581-0.065-1.205-0.371-1.356-0.936c-0.152-0.567,0.265-1.17,0.803-1.406c0.539-0.236,1.157-0.188,1.736-0.081
						c1.25,0.23,2.453,0.712,3.518,1.407c-0.418-0.984-0.698-2.028-0.827-3.091c-0.091-0.746-0.021-1.662,0.642-2.015
						c0.568-0.302,1.277-0.007,1.77,0.406c0.54,0.455,0.969,1.087,1.025,1.792c0.092,1.155-0.812,2.256-0.585,3.393
						c0.146,0.731,0.724,1.283,1.146,1.899c0.374,0.546,0.635,1.17,0.763,1.819c0.039,0.199,0.065,0.409,0.002,0.602
						c-0.264,0.797-1.574,0.583-2.156,0.311C59.119,271.877,58.498,270.814,57.913,270.102z"/>
					<path fill="#EC9F45" d="M60.172,273.05c-0.327-0.245-0.669-0.517-0.803-0.903c-0.135-0.387,0.049-0.91,0.452-0.98
						c0.304-0.054,0.208-0.719,0.443-0.519c0.468,0.397-0.45-0.417,0,0c-0.059-1.47,1.1-0.271,0.552-0.649
						c-0.105-0.072-0.104-0.244-0.083-0.371c0.05-0.294,0.477-0.375,0.721-0.205c0.244,0.171,0.345,0.479,0.43,0.764
						c0.208,0.699,0.416,1.396,0.624,2.095c0.266,0.892,0.647,1.841,0.723,2.76C62.162,274.699,61.084,273.731,60.172,273.05z"/>
				</g>
				<g id="XMLID_3712_">
					<path fill="#F7D688" d="M72.818,259.769c1.089-0.674,2.344-1.266,3.605-1.047c0.665,0.115,1.274,0.448,1.934,0.594
						s1.457,0.044,1.833-0.517c0.38-0.564,0.148-1.379-0.353-1.839s-1.196-0.638-1.868-0.737c-1.454-0.215-2.95-0.139-4.375,0.225
						c0.826-0.921,1.522-1.959,2.061-3.073c0.378-0.781,0.645-1.81,0.051-2.442c-0.509-0.543-1.394-0.485-2.087-0.217
						c-0.762,0.295-1.467,0.826-1.792,1.576c-0.532,1.23,0.044,2.771-0.629,3.931c-0.433,0.745-1.271,1.134-1.962,1.649
						c-0.613,0.458-1.133,1.042-1.516,1.705c-0.117,0.203-0.225,0.424-0.227,0.658c-0.009,0.969,1.504,1.226,2.242,1.146
						C70.835,261.261,71.911,260.33,72.818,259.769z"/>
					<path fill="#EC9F45" d="M69.244,262.15c0.45-0.146,0.925-0.315,1.217-0.688c0.291-0.373,0.287-1.014-0.128-1.242
						c-0.313-0.172,0.04-0.863-0.292-0.732c-0.66,0.26,0.648-0.288,0,0c0.613-1.586-1.102-0.707-0.361-0.916
						c0.144-0.041,0.206-0.229,0.23-0.375c0.056-0.341-0.382-0.589-0.713-0.494c-0.331,0.096-0.556,0.395-0.755,0.675
						c-0.489,0.687-0.978,1.372-1.466,2.059c-0.624,0.875-1.396,1.771-1.822,2.748C66.45,263.21,67.991,262.555,69.244,262.15z"/>
				</g>
				<g id="XMLID_3711_">
					<path fill="#F7D688" d="M61.139,252.586c-0.702-0.856-1.564-1.691-2.659-1.866c-0.576-0.092-1.168,0.011-1.748-0.054
						c-0.58-0.065-1.205-0.372-1.356-0.936c-0.152-0.568,0.265-1.17,0.803-1.407c0.539-0.235,1.158-0.187,1.736-0.08
						c1.25,0.23,2.453,0.712,3.518,1.407c-0.418-0.985-0.697-2.029-0.827-3.092c-0.091-0.746-0.021-1.662,0.643-2.015
						c0.567-0.301,1.276-0.007,1.769,0.407c0.541,0.454,0.97,1.087,1.025,1.791c0.092,1.156-0.811,2.256-0.584,3.393
						c0.146,0.731,0.723,1.284,1.145,1.899c0.374,0.547,0.636,1.17,0.764,1.819c0.039,0.199,0.064,0.41,0.001,0.603
						c-0.264,0.796-1.574,0.583-2.155,0.311C62.345,254.361,61.724,253.299,61.139,252.586z"/>
					<path fill="#EC9F45" d="M63.398,255.535c-0.328-0.245-0.67-0.518-0.804-0.904s0.049-0.909,0.452-0.98
						c0.305-0.054,0.208-0.718,0.444-0.518c0.468,0.396-0.451-0.417,0,0c-0.06-1.47,1.099-0.271,0.551-0.649
						c-0.105-0.073-0.104-0.244-0.083-0.371c0.05-0.294,0.477-0.376,0.721-0.205c0.245,0.171,0.345,0.478,0.43,0.764
						c0.209,0.698,0.417,1.396,0.625,2.095c0.266,0.891,0.646,1.841,0.722,2.759C65.388,257.184,64.311,256.216,63.398,255.535z"/>
				</g>
				<g id="XMLID_3710_">
					<path fill="#F7D688" d="M78.334,241.185c1.089-0.674,2.345-1.266,3.606-1.047c0.666,0.114,1.274,0.448,1.934,0.594
						s1.457,0.044,1.833-0.517c0.38-0.564,0.148-1.379-0.353-1.839s-1.196-0.638-1.868-0.737c-1.454-0.215-2.951-0.139-4.375,0.225
						c0.826-0.922,1.521-1.959,2.061-3.073c0.378-0.781,0.645-1.81,0.051-2.443c-0.509-0.542-1.394-0.485-2.087-0.216
						c-0.762,0.295-1.467,0.826-1.792,1.576c-0.532,1.229,0.044,2.771-0.629,3.93c-0.433,0.746-1.271,1.135-1.962,1.65
						c-0.613,0.457-1.133,1.042-1.516,1.705c-0.117,0.203-0.224,0.423-0.227,0.658c-0.009,0.969,1.504,1.226,2.242,1.146
						C76.352,242.676,77.428,241.746,78.334,241.185z"/>
					<path fill="#EC9F45" d="M74.761,243.566c0.45-0.146,0.925-0.315,1.217-0.688c0.291-0.373,0.286-1.014-0.128-1.242
						c-0.313-0.172,0.04-0.863-0.292-0.732c-0.66,0.26,0.648-0.288,0,0c0.613-1.586-1.103-0.707-0.361-0.917
						c0.144-0.04,0.206-0.228,0.23-0.375c0.056-0.34-0.382-0.589-0.713-0.493s-0.556,0.395-0.755,0.675
						c-0.489,0.686-0.978,1.372-1.466,2.059c-0.624,0.875-1.396,1.771-1.822,2.748C71.967,244.626,73.508,243.971,74.761,243.566z"
						/>
				</g>
				<g id="XMLID_3709_">
					<path fill="#F7D688" d="M66.655,234.002c-0.702-0.856-1.564-1.691-2.659-1.866c-0.576-0.092-1.168,0.011-1.748-0.055
						c-0.58-0.064-1.205-0.371-1.356-0.935c-0.152-0.568,0.265-1.171,0.803-1.407c0.539-0.236,1.158-0.187,1.736-0.08
						c1.25,0.229,2.454,0.711,3.518,1.407c-0.418-0.985-0.697-2.029-0.827-3.092c-0.091-0.746-0.021-1.662,0.643-2.015
						c0.567-0.302,1.276-0.007,1.769,0.407c0.541,0.454,0.97,1.087,1.025,1.791c0.092,1.155-0.811,2.256-0.584,3.393
						c0.146,0.731,0.723,1.284,1.145,1.899c0.374,0.546,0.636,1.17,0.764,1.819c0.039,0.199,0.064,0.409,0.001,0.603
						c-0.264,0.796-1.574,0.582-2.155,0.311C67.861,235.777,67.24,234.715,66.655,234.002z"/>
					<path fill="#EC9F45" d="M68.915,236.951c-0.328-0.245-0.67-0.518-0.804-0.904s0.049-0.91,0.452-0.98
						c0.304-0.054,0.208-0.718,0.444-0.518c0.467,0.396-0.451-0.418,0,0c-0.06-1.471,1.1-0.271,0.551-0.649
						c-0.105-0.073-0.104-0.245-0.083-0.372c0.05-0.293,0.477-0.375,0.722-0.204c0.244,0.171,0.344,0.478,0.43,0.764
						c0.208,0.698,0.416,1.396,0.624,2.095c0.266,0.891,0.646,1.841,0.722,2.759C70.904,238.6,69.827,237.632,68.915,236.951z"/>
				</g>
				<g id="XMLID_3708_">
					<path fill="#F7D688" d="M82.844,222.963c0.789-0.488,1.699-0.917,2.613-0.759c0.482,0.083,0.924,0.325,1.401,0.431
						s1.055,0.031,1.328-0.374c0.274-0.409,0.107-1-0.256-1.333c-0.362-0.333-0.866-0.462-1.354-0.534
						c-1.053-0.156-2.138-0.101-3.17,0.163c0.599-0.668,1.104-1.42,1.494-2.228c0.273-0.566,0.467-1.312,0.036-1.771
						c-0.368-0.393-1.01-0.352-1.513-0.156c-0.552,0.213-1.063,0.599-1.298,1.142c-0.386,0.892,0.031,2.009-0.456,2.849
						c-0.313,0.54-0.921,0.821-1.422,1.195c-0.444,0.332-0.82,0.755-1.098,1.235c-0.085,0.147-0.163,0.308-0.164,0.478
						c-0.007,0.702,1.09,0.888,1.624,0.83C81.406,224.044,82.187,223.369,82.844,222.963z"/>
					<path fill="#EC9F45" d="M80.254,224.688c0.326-0.105,0.671-0.229,0.882-0.499c0.211-0.27,0.208-0.734-0.093-0.899
						c-0.227-0.125,0.029-0.626-0.212-0.531c-0.479,0.188,0.47-0.208,0,0c0.444-1.148-0.798-0.512-0.261-0.664
						c0.104-0.029,0.148-0.165,0.166-0.271c0.04-0.246-0.276-0.427-0.517-0.357c-0.239,0.069-0.402,0.285-0.547,0.488
						c-0.354,0.497-0.708,0.995-1.063,1.492c-0.452,0.634-1.012,1.284-1.319,1.991C78.229,225.457,79.347,224.981,80.254,224.688z"
						/>
				</g>
				<g id="XMLID_3707_">
					<path fill="#F7D688" d="M74.769,217.543c-0.509-0.621-1.134-1.226-1.927-1.353c-0.418-0.066-0.847,0.008-1.267-0.039
						c-0.421-0.048-0.873-0.27-0.983-0.678c-0.11-0.412,0.191-0.849,0.582-1.02s0.839-0.136,1.258-0.059
						c0.906,0.167,1.778,0.516,2.55,1.02c-0.304-0.714-0.506-1.47-0.6-2.24c-0.066-0.54-0.016-1.204,0.465-1.459
						c0.411-0.219,0.926-0.006,1.282,0.294c0.392,0.33,0.702,0.788,0.743,1.299c0.066,0.837-0.588,1.635-0.424,2.458
						c0.105,0.53,0.524,0.931,0.829,1.376c0.271,0.396,0.461,0.849,0.554,1.319c0.028,0.144,0.047,0.296,0.001,0.437
						c-0.191,0.576-1.141,0.422-1.563,0.225C75.643,218.83,75.192,218.06,74.769,217.543z"/>
					<path fill="#EC9F45" d="M76.406,219.68c-0.238-0.178-0.485-0.374-0.583-0.655c-0.097-0.28,0.036-0.659,0.328-0.71
						c0.221-0.039,0.151-0.521,0.321-0.375c0.339,0.287-0.326-0.303,0,0c-0.042-1.065,0.797-0.196,0.4-0.471
						c-0.077-0.054-0.076-0.178-0.061-0.27c0.036-0.213,0.346-0.271,0.522-0.148c0.177,0.124,0.25,0.347,0.312,0.554
						c0.15,0.506,0.302,1.012,0.452,1.518c0.192,0.646,0.469,1.334,0.523,1.999C77.848,220.874,77.066,220.174,76.406,219.68z"/>
				</g>
			</g>
		</g>
		<path fill="#839C7C" d="M81.612,374.615c-2.137,4.845-5.4,9.09-9.883,11.87c-0.837,0.518-4.212-12.494-4.313-13.935
			c-0.425-5.938,0.774-11.914,2.819-17.47c1.688-4.579,3.936-8.911,6.382-13.143L81.612,374.615z"/>
	</g>
	<g>
		<path fill="#52735F" d="M70.819,400.25c0.571,5.145,3.673,9.568,6.735,13.658c2.916,3.896,5.913,7.758,9.338,11.186
			c0.919,0.92,3.158,4.059,4.152,2.353c0.888-1.522-1.357-4.406-2.041-5.608C84.29,413.552,78.094,406.178,70.819,400.25z"/>
		<path fill="#52735F" d="M76.333,364.326c-0.487,4.324,1.232,8.528,2.982,12.452c1.668,3.737,3.407,7.461,5.577,10.908
			c0.583,0.926,1.836,3.915,2.969,2.701c1.01-1.083-0.295-3.865-0.632-4.978C84.905,377.738,81.196,370.54,76.333,364.326z"/>
		<path fill="#52735F" d="M111.296,353.844c-1.262,4.166-4.604,7.32-7.862,10.205c-3.104,2.748-6.272,5.453-9.745,7.73
			c-0.933,0.611-3.338,2.843-3.943,1.268c-0.54-1.405,1.832-3.425,2.603-4.308C97.661,362.65,104.119,357.561,111.296,353.844z"/>
		<path id="XMLID_3706_" fill="#52735F" d="M111.087,382.683c-1.112,5.056-4.784,9.104-8.383,12.825
			c-3.428,3.544-6.935,7.045-10.843,10.064c-1.05,0.812-3.695,3.679-4.559,1.867c-0.771-1.617,1.856-4.23,2.688-5.349
			C95.73,394.382,102.92,387.751,111.087,382.683z"/>
		<path fill="#52735F" d="M88.979,404.13c-0.752-26.087,7.498-53.317,10.533-78.641c1.365-11.392,1.994-23.086-0.184-34.415
			c-0.152-0.794-1.472-0.62-1.418,0.192c0.699,10.646,0.552,21.243-0.678,31.848c-1.255,10.81-3.367,21.499-5.38,32.187
			c-3.181,16.882-6.13,34.07-5.06,51.266C87.344,405.558,88.093,404.745,88.979,404.13z"/>
		<path fill="#52735F" d="M131.854,442.685c-3.735,5.317-8.433,10.067-14.886,11.767c-8.995,2.363-15.545-2.479-20.132-9.27
			c-1.193-1.766-2.257-3.672-3.19-5.611c-1.392-2.858-2.498-5.804-3.364-8.537c-2.329-7.345-3.479-15.035-3.841-22.716
			c-0.226-4.817-0.27-9.784,0.179-14.675c0.26-2.863,0.692-5.693,1.356-8.45c0.039-0.154,0.135-0.251,0.241-0.304
			c0.288-0.13,0.707,0.053,0.712,0.434c0.024,1.42,0.024,2.844,0.005,4.259c-0.082,5.679-0.438,11.334-0.332,17.013
			c0.029,1.704,0.096,3.408,0.23,5.121c0.481,6.103,1.521,12.205,3.316,18.066c0.828,2.69,1.805,5.323,2.965,7.889
			c0.505,1.126,1.073,2.276,1.698,3.422c0.192,0.36,0.399,0.717,0.606,1.068c0.525,0.909,1.098,1.809,1.709,2.671
			c3.118,4.384,7.315,7.897,12.956,7.975c6.978,0.097,12.339-4.346,16.454-9.616L131.854,442.685z"/>
		<path id="XMLID_3705_" fill="#E6BDD0" d="M92.114,289.56c1.87,0.28,3.645,1.165,4.993,2.489c-1.796-1.384-3.124-3.365-3.722-5.554
			c-0.094-0.343-0.169-0.712-0.063-1.051c0.208-0.657,1.043-0.936,1.71-0.767c0.668,0.169,1.201,0.657,1.704,1.128
			c-0.771-1.225-1.987-2.097-2.907-3.213s-1.532-2.729-0.836-3.997s3.092-1.229,3.278,0.206c-0.81-1.449-1.619-2.897-2.429-4.347
			c-0.357-0.639-0.726-1.363-0.533-2.068c0.192-0.706,1.278-1.108,1.659-0.484c-1.531-3.362-2.138-7.141-1.735-10.814
			c2.164,0.548,3.21,2.982,3.701,5.159c0.604,2.675,0.849,5.43,0.724,8.168c0.308-1.368,0.615-2.738,0.923-4.107
			c0.11-0.489,0.234-1.005,0.584-1.364c0.734-0.754,2.124-0.367,2.707,0.51c0.583,0.876,0.563,2.016,0.425,3.059
			c-0.337,2.517-1.255,4.954-2.663,7.067c0.682-1.408,1.598-2.702,2.698-3.813c0.335-0.338,0.711-0.671,1.176-0.769
			c0.862-0.181,1.706,0.564,1.927,1.417c0.221,0.852-0.026,1.752-0.339,2.575c-1.043,2.738-2.854,5.181-5.171,6.976
			c2.234-2.177,5.24-4.531,8.146-3.395c-1.259,3.5-3.687,6.568-6.804,8.598c2.084-1.61,4.527-3.314,7.113-2.814
			c-0.028-0.006-3.298,4.268-3.738,4.681c-1.268,1.188-2.917,5.827-4.643,6.286C96.366,300.285,93.041,292.604,92.114,289.56z"/>
		<path id="XMLID_3704_" fill="#E6BDD0" d="M86.419,296.323c-0.392-0.687-0.746-1.595-0.253-2.213
			c5.78,1.573,10.198,6.292,13.342,11.393c0.889-2.141,1.918-4.223,3.078-6.229c1.358-2.347,3.015-4.693,5.468-5.848
			c0.973-0.458,2.206-0.68,3.068-0.037c0.858,0.641,0.998,1.928,0.611,2.927c-0.386,0.998-1.179,1.775-1.948,2.52
			c-3.258,3.148-8.125,10.585-12.566,8.758S88.709,300.335,86.419,296.323z"/>
		<path fill="#F2E1E9" d="M92.708,310.392c0.993,1.301,3.164,2.364,5.203,2.55c-1.69-0.463-3.416-0.782-5.107-0.943
			c-0.716-0.068-1.631,0.031-1.466,0.498c0.134,0.382,0.878,0.603,1.469,0.721c1.139,0.23,2.277,0.46,3.416,0.689
			c-2.595-0.658-5.258,0.049-5.795,1.538c1.447,0.819,3.412,1.163,4.839,0.847c-1.359,0.474-2.718,0.948-4.076,1.422
			c-0.325,0.113-0.683,0.279-0.585,0.555c0.063,0.178,0.304,0.338,0.543,0.466c0.992,0.531,2.26,0.796,3.299,0.688
			c-0.965,0.124-1.93,0.248-2.895,0.372c-0.985,0.127-2.131,0.628-1.412,1.276c0.235,0.212,0.605,0.346,0.953,0.468
			c1.028,0.359,2.057,0.72,3.085,1.079c-1.836-0.395-4.228-0.555-4.528,0.517c-0.165,0.589,0.476,1.32,1.321,1.818
			c0.845,0.497,1.864,0.811,2.856,1.112c-1.664-0.108-3.146,0.346-3.84,1.178c1.249,0.342,2.498,0.684,3.747,1.025
			c-1.817-0.259-3.394,0.503-3.382,1.635c1.023,0.458,2.224,0.68,3.251,0.602c-0.214,0.412-0.428,0.825-0.643,1.237
			c2.215,0.876,4.633,1.417,6.931,1.55c1.26,0.073,2.773-0.241,2.382-1.071c-0.998-0.383-1.995-0.765-2.992-1.146
			c1.204,0.435,2.555,0.563,3.616,0.342c0.274-0.057,0.539-0.142,0.677-0.298c0.381-0.434-0.402-1.148-1.252-1.478
			c-0.849-0.33-1.789-0.453-2.628-0.798c1.613,0.391,3.278,0.429,4.617,0.105c0.254-0.062,0.521-0.16,0.519-0.351
			c-0.002-0.248-0.439-0.476-0.819-0.62c-1.447-0.551-3.019-0.88-4.501-0.941c2.443,0.412,4.777-0.184,5.647-1.442
			c-1.717-0.846-3.912-1.123-5.449-0.688c1.322-0.091,2.546-0.351,3.591-0.763c0.536-0.212,1.062-0.581,0.744-1.048
			c-0.137-0.202-0.408-0.373-0.688-0.516c-1.235-0.633-2.84-0.86-3.979-0.563c1.584-0.373,4.127,0.112,4.789-0.878
			c0.338-0.504-0.098-1.283-0.96-1.718c-0.861-0.436-2.036-0.468-2.588-0.071c1.613-0.07,3.503-0.304,3.623-1.344
			c0.066-0.573-0.535-1.272-1.415-1.646c-0.879-0.373-1.966-0.39-2.556-0.039c2.108,0.313,4.021-0.408,4.353-1.643
			c-1.259-0.76-2.98-1.148-4.347-0.98c1.016,0.164,1.981-0.086,2.347-0.608c0.351-0.501-4.078-0.743-4.174-0.764
			C96.589,311.922,94.692,310.826,92.708,310.392z"/>
	</g>
	<g>
		<path id="XMLID_3703_" fill="#52735F" d="M408.407,134.327c0,0,9.522,7.584,15.07,31.274
			C429.026,189.291,408.791,153.726,408.407,134.327z"/>
		<path id="XMLID_3702_" fill="#52735F" d="M408.407,134.327c0,0-5.618,21.626-13.62,28.868c-4.232,3.615-6.582,9.115-8.938,11.381
			C383.493,176.842,394.979,137.302,408.407,134.327z"/>
		<path id="XMLID_3701_" fill="#52735F" d="M407.657,181.82c0,0,9.327,15.203,10.382,27.206
			C419.093,221.03,407.25,187.227,407.657,181.82z"/>
		<path id="XMLID_3700_" fill="#52735F" d="M408.981,181.723c0,0-10.395,22.814-14.318,24.58
			C390.739,208.067,402.286,182.973,408.981,181.723z"/>
		<path fill="#52735F" d="M409.747,109.332c0.001,0.012,0.004,0.021,0.004,0.033c0,1.466,0,2.931,0,4.396
			c0,1.199,0.063,2.399-0.015,3.598c-0.136,2.083-1.121,4.09-1.54,6.127c-0.886,4.304-2.17,8.786-1.435,13.203
			c0.021,0.124,0.061,0.229,0.107,0.324c-0.117,9.137-0.073,19.551-0.16,28.147c-0.049,4.882,0.119,9.828,0,14.71
			c-0.112,4.594-0.399,10.236,0.246,14.818c-0.04,0.822-0.083,1.644-0.137,2.459c-0.271,4.105-0.638,8.202-1.051,12.295
			c-0.873,8.657-2.081,17.273-3.65,25.833c-1.535,8.379-3.395,16.696-5.599,24.926c-1.063,3.972-2.204,7.924-3.422,11.851
			c-1.294,4.17-3.071,8.333-3.985,12.599c-0.227,1.059,1.289,1.992,1.866,0.866c1.899-3.709,2.994-7.908,4.241-11.874
			c1.322-4.202,2.556-8.433,3.699-12.688c2.287-8.507,4.229-17.112,5.783-25.784c1.522-8.492,2.714-17.052,3.521-25.642
			c0.412-4.384,0.706-8.782,0.903-13.181c0.15-3.326,0.909-7.31,0.715-10.658c0.044-1.942-0.137-2.573-0.068-4.42
			c0.182-4.88-0.155-10.964-0.11-15.848c0.092-9.978,1.066-19.963,0.331-29.938c-0.369-5.001,0.624-9.962,1.279-14.896
			C411.743,117.056,411.885,112.455,409.747,109.332z"/>
	</g>
	<path fill="#52735F" d="M92.611,89.553c7.25-1.971,14.437-4.214,21.833-5.521c5.495-0.973,11.027-1.529,16.554-1.523
		c1.014,2.516,2.128,4.875,3.441,7.045c0.635,1.066,1.328,2.091,2.08,3.063c1.492,1.938,3.22,3.683,5.269,5.195
		c5.512,4.071,12.047,6.168,18.687,6.215c-2.915-4.261-6.325-8.096-10.107-11.41c-1.224-1.077-2.49-2.102-3.793-3.063
		c-3.866-2.863-8.043-5.223-12.414-6.982c3.73,0.158,7.449,0.583,11.148,1.334c7.522,1.529,15.545,4.25,23.562,5.648
		c5.794,1.014,11.589,1.334,17.179,0c2.773-0.662,5.495-1.724,8.143-3.311c0.578-0.347,0.115-1.219-0.462-0.966
		c-9.74,4.191-19.228,3.362-28.716,1.318c10.396,0.268,20.919-4.917,27.586-13.88c-5.853-0.525-11.273,1.13-16.653,3.809
		c-5.164,2.574-9.74,5.789-14.441,9.262c-7.229-1.738-14.479-3.908-21.854-4.827c-8.358-1.04-17.084-0.631-25.752,0.745
		c9.167-4.098,17.289-11.132,23.025-20.083c-11.957,0.925-23.398,9.225-28.778,21.134c-7.869,1.64-15.603,4.02-22.857,6.799H92.611z
		"/>
	<path fill="#52735F" d="M314.999,423.801c2.06,0.384,4.003,0.783,5.369,1.108c-10.386-0.493-21.02,4.46-27.88,13.276
		c5.842,0.656,11.295-0.883,16.732-3.447c5.216-2.458,9.865-5.578,14.641-8.946c7.187,1.896,14.39,4.224,21.744,5.301
		c8.332,1.219,17.068,1.004,25.758-0.188c-9.252,3.897-17.521,10.753-23.451,19.579c11.973-0.667,23.593-8.716,29.229-20.504
		c7.78-1.45,15.445-3.609,22.663-6.179h-8.105c-6.914,1.744-13.785,3.678-20.83,4.766c-5.511,0.855-11.059,1.292-16.58,1.166
		c-0.788-2.086-1.644-4.071-2.637-5.932c-0.552-1.061-1.15-2.085-1.802-3.063c-1.634-2.469-3.589-4.665-6.016-6.541
		c-5.422-4.191-11.915-6.424-18.555-6.619c3.257,4.991,7.181,9.425,11.594,13.16c1.276,1.082,2.596,2.102,3.951,3.063
		c3.246,2.307,6.703,4.256,10.302,5.795c-3.725-0.236-7.434-0.74-11.116-1.57c-4.97-1.125-10.155-2.779-15.408-4.225H314.999z"/>
	<g>
		<path id="XMLID_3699_" fill="#E6BDD0" d="M380.891,285.233c1.979,0.388,4.078,0.134,5.907-0.714
			c-2.3,0.748-4.343,2.264-5.726,4.247c-0.218,0.312-0.426,0.654-0.439,1.033c-0.027,0.734,0.712,1.313,1.443,1.382
			s1.441-0.229,2.115-0.522c-1.213,0.954-2.746,1.395-4.07,2.187s-2.516,2.192-2.271,3.716s2.666,2.341,3.367,0.966
			c-1.332,1.166-2.664,2.332-3.996,3.498c-0.587,0.513-1.216,1.108-1.275,1.887c-0.06,0.777,0.888,1.57,1.494,1.08
			c-2.742,2.829-4.703,6.408-5.614,10.241c2.37,0.225,4.292-1.847,5.564-3.857c1.564-2.47,2.796-5.15,3.65-7.946
			c-0.181,1.485-0.362,2.971-0.543,4.456c-0.064,0.531-0.125,1.094,0.098,1.58c0.468,1.021,2.003,1.129,2.902,0.457
			s1.287-1.823,1.521-2.921c0.563-2.648,0.513-5.425-0.146-8.052c0.181,1.658,0.638,3.286,1.346,4.796
			c0.216,0.459,0.474,0.929,0.906,1.193c0.801,0.489,1.915,0.043,2.442-0.733c0.527-0.777,0.601-1.771,0.581-2.708
			c-0.068-3.125-1.013-6.227-2.698-8.857c1.466,2.986,3.643,6.427,6.968,6.324c-0.012-3.966-1.352-7.917-3.757-11.07
			c1.517,2.363,3.361,4.949,6.138,5.372c-0.031-0.005-1.785-5.467-2.08-6.04c-0.848-1.646-0.845-6.896-2.414-7.976
			C389,275.981,382.911,282.507,380.891,285.233z"/>
		<path id="XMLID_3698_" fill="#E6BDD0" d="M377.591,276.401c-0.64,0.55-1.319,1.334-1.047,2.132
			c6.369,0.488,12.496-2.671,17.479-6.668c0.126,2.468,0.415,4.927,0.862,7.357c0.524,2.843,1.349,5.793,3.399,7.831
			c0.814,0.808,1.973,1.472,3.069,1.135c1.091-0.336,1.692-1.579,1.662-2.721c-0.031-1.142-0.549-2.205-1.056-3.229
			c-2.146-4.328-4.373-13.54-9.489-13.294C387.357,269.191,381.326,273.19,377.591,276.401z"/>
		<path fill="#F2E1E9" d="M388.942,264.521c1.464-0.951,4.024-1.243,6.139-0.699c-1.863-0.14-3.711-0.437-5.468-0.88
			c-0.744-0.188-1.626-0.616-1.294-1.025c0.271-0.335,1.098-0.291,1.733-0.199c1.226,0.178,2.452,0.354,3.678,0.531
			c-2.842-0.269-5.264-1.932-5.27-3.619c1.746-0.306,3.843,0.053,5.162,0.882c-1.194-0.963-2.39-1.926-3.585-2.888
			c-0.286-0.23-0.586-0.524-0.389-0.767c0.127-0.156,0.425-0.23,0.711-0.273c1.188-0.179,2.556,0.009,3.561,0.489
			c-0.925-0.47-1.85-0.94-2.774-1.41c-0.944-0.48-1.915-1.393-0.961-1.787c0.312-0.129,0.731-0.131,1.124-0.129
			c1.162,0.007,2.324,0.014,3.486,0.02c-1.986-0.26-4.446-0.955-4.364-2.139c0.045-0.65,0.95-1.156,1.978-1.354
			s2.163-0.147,3.267-0.096c-1.71-0.486-3.035-1.473-3.435-2.557c1.377,0.104,2.754,0.207,4.131,0.311
			c-1.919-0.391-3.229-1.719-2.812-2.853c1.191-0.094,2.476,0.113,3.48,0.56c-0.067-0.491-0.135-0.981-0.203-1.473
			c2.538-0.087,5.161,0.235,7.517,0.923c1.292,0.378,2.699,1.235,2.009,1.93c-1.139,0.026-2.277,0.054-3.416,0.08
			c1.366-0.006,2.768,0.349,3.756,0.951c0.255,0.155,0.49,0.335,0.572,0.542c0.228,0.571-0.815,1.009-1.786,1.035
			c-0.971,0.027-1.959-0.185-2.926-0.139c1.761,0.186,3.446,0.742,4.677,1.547c0.232,0.152,0.465,0.346,0.395,0.537
			c-0.091,0.249-0.611,0.32-1.044,0.329c-1.651,0.036-3.348-0.196-4.858-0.665c2.602,0.461,4.732,1.895,5.157,3.471
			c-2.027,0.234-4.332-0.272-5.722-1.259c1.297,0.564,2.434,1.263,3.335,2.052c0.463,0.404,0.858,0.963,0.372,1.318
			c-0.21,0.153-0.543,0.229-0.875,0.272c-1.468,0.193-3.16-0.153-4.199-0.859c1.458,0.94,4.186,1.363,4.497,2.595
			c0.159,0.627-0.558,1.255-1.579,1.383c-1.021,0.129-2.213-0.26-2.625-0.854c1.596,0.647,3.41,1.558,3.158,2.646
			c-0.138,0.599-0.992,1.086-2.01,1.146c-1.017,0.061-2.114-0.312-2.582-0.875c2.231,0.439,3.894,1.85,3.785,3.208
			c-1.536,0.313-3.405,0.087-4.718-0.571c1.079,0.199,1.959,0.796,2.14,1.451c0.173,0.629-4.362-0.713-4.466-0.727
			C393.388,264.372,391.091,264.794,388.942,264.521z"/>
	</g>
</g>
</svg>
