<?xml version="1.0" encoding="utf-8"?>
<!-- Generator: Adobe Illustrator 16.0.0, SVG Export Plug-In . SVG Version: 6.00 Build 0)  -->
<!DOCTYPE svg PUBLIC "-//W3C//DTD SVG 1.1//EN" "http://www.w3.org/Graphics/SVG/1.1/DTD/svg11.dtd">
<svg version="1.1" id="Layer_1" xmlns="http://www.w3.org/2000/svg" xmlns:xlink="http://www.w3.org/1999/xlink" x="0px" y="0px"
	 width="500px" height="500px" viewBox="0 0 500 500" enable-background="new 0 0 500 500" xml:space="preserve">
<g>
	<g>
		<path fill="none" d="M444.867,306.857c0.215,0.357,0.449,0.764,0.709,1.195l0.006,0.004l-0.002-0.002
			C445.32,307.623,445.082,307.217,444.867,306.857z"/>
		<path fill="none" d="M449.4,317.436c-0.012,0.004-0.021,0.014-0.035,0.016C449.379,317.449,449.389,317.441,449.4,317.436z"/>
		<path fill="none" d="M439.273,280.982c0.607,0.141,1.83,0.268,2.729,0.5c-0.898-0.234-2.121-0.359-2.73-0.502L439.273,280.982z"/>
		<path fill="none" d="M449.246,317.461c-0.02,0-0.035,0.004-0.057,0.002C449.211,317.465,449.227,317.461,449.246,317.461z"/>
		<path fill="none" d="M448.768,314.498c-0.061-0.156-0.115-0.301-0.152-0.418c0-0.002,0-0.002,0-0.002
			c3.41,0.123,7.443,0.002,9.688-1.02c-2.244,1.021-6.277,1.143-9.689,1.02c-0.164-0.516,0.137-1.572,0.342-2.543
			c-0.205,0.971-0.508,2.027-0.344,2.543C448.65,314.195,448.707,314.342,448.768,314.498z"/>
		<path fill="none" d="M443.598,305.652c0.057-0.115,0.125-0.16,0.207-0.15c-0.082-0.012-0.152,0.035-0.209,0.15
			c-0.012,0.027-0.025,0.055-0.039,0.082C443.57,305.707,443.584,305.68,443.598,305.652z"/>
		<path fill="none" d="M411.838,303.256c0.125-0.34,0.973-0.969,1.969-1.793v-0.002l-0.002,0.002
			C412.807,302.289,411.963,302.916,411.838,303.256z"/>
		<path fill="none" d="M411.828,303.303c0,0.01-0.006,0.021-0.006,0.029C411.822,303.324,411.828,303.313,411.828,303.303z"/>
		<path fill="none" d="M418.637,298.053c-0.695,0.342-2.813-0.209-3.633,0.129c0.82-0.336,2.936,0.213,3.631-0.127l0.006-0.002
			c0.225-0.111,0.549-0.311,0.9-0.516c-0.352,0.205-0.678,0.402-0.902,0.516H418.637z"/>
		<path fill="none" d="M431.484,280.396h-0.008c-2.012,0.006-3.582-0.094-3.637,0.332c0.061-0.426,1.625-0.324,3.635-0.328
			l0.012-0.004c0.551-0.004,1.035-0.225,1.484-0.539C432.521,280.172,432.037,280.393,431.484,280.396z"/>
		<path fill="none" d="M434.811,278.164c-0.145,0.133-0.289,0.275-0.434,0.42c0.145-0.145,0.289-0.287,0.434-0.418
			c0.92-0.848,2.963,2.115,4.217,2.723C437.771,280.277,435.73,277.318,434.811,278.164z"/>
		<path fill="none" d="M448.793,314.563c0.01,0.023,0.021,0.051,0.031,0.076C448.814,314.613,448.803,314.586,448.793,314.563z"/>
		<path fill="none" d="M449.445,316.285c0.006,0.025,0.014,0.049,0.02,0.074C449.459,316.334,449.451,316.311,449.445,316.285z"/>
		<path fill="none" d="M449.35,315.99c0.006,0.021,0.014,0.041,0.02,0.063C449.363,316.031,449.355,316.012,449.35,315.99z"/>
		<path fill="none" d="M449.523,316.582c0.004,0.01,0.006,0.02,0.008,0.029C449.529,316.602,449.527,316.592,449.523,316.582z"/>
		<path fill="none" d="M449.586,317.043c0,0.012,0,0.025,0,0.037C449.586,317.068,449.586,317.055,449.586,317.043z"/>
		<path fill="none" d="M449.566,317.221c-0.002,0.012-0.004,0.023-0.008,0.033C449.563,317.244,449.564,317.232,449.566,317.221z"/>
		<path fill="none" d="M449.57,316.828c0.002,0.012,0.004,0.023,0.006,0.035C449.574,316.852,449.572,316.84,449.57,316.828z"/>
		<path fill="none" d="M449.506,317.354c-0.006,0.01-0.012,0.02-0.02,0.027C449.494,317.373,449.5,317.363,449.506,317.354z"/>
		<path fill="none" d="M449.246,315.701c0.002,0.008,0.006,0.016,0.008,0.025C449.252,315.717,449.248,315.709,449.246,315.701z"/>
		<path fill="none" d="M412.057,405.639c0.012-0.029,0.023-0.057,0.035-0.09C412.08,405.582,412.068,405.609,412.057,405.639z"/>
		<path fill="none" d="M411.842,405.992c0.018-0.016,0.035-0.035,0.051-0.055C411.877,405.957,411.859,405.977,411.842,405.992z"/>
		<path fill="none" d="M412.314,404.391c0.061-0.52,0.098-1.072,0.137-1.537C412.412,403.316,412.375,403.871,412.314,404.391z"/>
		<path fill="none" d="M412.162,405.305c0.012-0.049,0.021-0.102,0.033-0.154C412.184,405.203,412.174,405.256,412.162,405.305z"/>
		<path fill="none" d="M412.463,402.699c0.004-0.033,0.006-0.064,0.01-0.096C412.469,402.635,412.467,402.666,412.463,402.699z"/>
		<path fill="none" d="M412.223,405.014c0.012-0.061,0.021-0.123,0.031-0.186C412.244,404.891,412.234,404.953,412.223,405.014z"/>
		<path fill="none" d="M412.273,404.703c0.012-0.07,0.021-0.141,0.029-0.213C412.295,404.563,412.285,404.633,412.273,404.703z"/>
		<path fill="none" d="M411.402,406.02c-0.018-0.012-0.037-0.021-0.059-0.035C411.365,405.998,411.385,406.008,411.402,406.02z"/>
		<path fill="none" d="M412.482,394.391l-0.002-0.008c-0.117-1.43-0.164-2.639-0.336-3.223c0.172,0.584,0.217,1.793,0.336,3.223
			v0.006c0.113,1.295,1.365,2.143,2.332,2.998C413.85,396.531,412.596,395.686,412.482,394.391z"/>
		<path fill="none" d="M411.762,406.049c-0.016,0.008-0.033,0.02-0.051,0.025C411.729,406.068,411.746,406.057,411.762,406.049z"/>
		<path fill="none" d="M411.533,406.074c0.012,0.004,0.025,0.01,0.037,0.012C411.559,406.084,411.545,406.078,411.533,406.074z"/>
		<path fill="none" d="M412,405.77c-0.014,0.027-0.029,0.051-0.043,0.076C411.971,405.82,411.986,405.797,412,405.77z"/>
		<path fill="#EDD48A" d="M412.145,391.16c0.172,0.584,0.219,1.793,0.336,3.223l0.002,0.008c4.854-2.393,11.135-4.133,13.723-2.83
			c-0.602-2.266-1.852-4.279-3.563-5.326c-2.105-1.291-6.922,1.303-10.984,4.635c0.061-0.049,0.115-0.07,0.166-0.078
			C411.967,390.77,412.068,390.9,412.145,391.16z"/>
		<path fill="#EDD48A" d="M412.521,402.197c0,0-0.002,0-0.002,0.002c-0.018,0.115-0.033,0.254-0.047,0.404
			c-0.004,0.031-0.006,0.063-0.01,0.096c-0.004,0.049-0.008,0.102-0.012,0.154c-0.039,0.465-0.076,1.018-0.137,1.537
			c-0.004,0.033-0.008,0.066-0.012,0.1c-0.008,0.072-0.018,0.143-0.029,0.213c-0.006,0.041-0.012,0.084-0.02,0.125
			c-0.01,0.063-0.02,0.125-0.031,0.186c-0.008,0.047-0.018,0.092-0.027,0.137c-0.012,0.053-0.021,0.105-0.033,0.154
			c-0.021,0.088-0.045,0.168-0.07,0.244c-0.012,0.033-0.023,0.061-0.035,0.09c-0.018,0.045-0.037,0.09-0.057,0.131
			c-0.014,0.027-0.029,0.051-0.043,0.076c-0.021,0.033-0.043,0.064-0.064,0.092c-0.016,0.02-0.033,0.039-0.051,0.055
			c-0.025,0.023-0.051,0.041-0.08,0.057c-0.016,0.008-0.033,0.02-0.051,0.025c-0.006,0.002-0.012,0.008-0.018,0.008
			c-0.037,0.01-0.078,0.012-0.123,0.004c-0.012-0.002-0.025-0.008-0.037-0.012c-0.041-0.01-0.084-0.029-0.131-0.055
			c-0.018-0.012-0.037-0.021-0.059-0.035c-0.055-0.039-0.111-0.086-0.17-0.146c-0.008-0.008-0.014-0.01-0.021-0.018
			c3.199,3.428,6.957,6.629,9.281,5.861c3.141-1.035,5.51-4.264,6.271-7.52c-0.387,0.518-0.809,1.004-1.311,1.404
			C423.15,407.365,417.15,404.723,412.521,402.197z"/>
		<path fill="#F6E4BC" d="M412.482,394.391c0.113,1.295,1.367,2.141,2.33,2.996c0.055,0.049,0.111,0.096,0.162,0.145
			c0.977,0.906-2.264,3.426-2.453,4.666c4.629,2.525,10.629,5.168,12.873,3.369c0.502-0.4,0.924-0.887,1.311-1.404
			c1.986-2.654,2.504-6.602,1.51-9.617c-0.305-0.926-0.715-1.783-1.307-2.461c-0.186-0.213-0.424-0.383-0.703-0.523
			C423.617,390.258,417.336,391.998,412.482,394.391z"/>
		<path fill="#EDD48A" d="M427.84,280.729c0.055-0.426,1.625-0.326,3.637-0.332h0.008c-2-5.027-3.234-11.426-1.732-13.904
			c-2.307,0.42-4.412,1.508-5.592,3.129c-1.451,1.994,0.746,6.996,3.742,11.309C427.854,280.854,427.832,280.785,427.84,280.729z"/>
		<path fill="#EDD48A" d="M439.27,280.979l0.002,0.002c0.609,0.143,1.832,0.268,2.73,0.502c0.674,0.176,1.162,0.412,1.07,0.76
			c-0.031,0.115-0.125,0.244-0.301,0.387c3.672-2.916,7.162-6.408,6.582-8.785c-0.785-3.213-3.814-5.832-7-6.85
			c0.486,0.428,0.938,0.887,1.297,1.418C445.266,270.793,442.152,276.564,439.27,280.979z"/>
		<path fill="#F6E4BC" d="M431.484,280.396c0.553-0.004,1.037-0.225,1.486-0.539c0.504-0.355,0.961-0.828,1.406-1.273
			c0.145-0.145,0.289-0.287,0.434-0.42c0.92-0.846,2.961,2.113,4.217,2.725c0.082,0.041,0.162,0.07,0.238,0.088l0.004,0.002
			c2.883-4.414,5.996-10.186,4.381-12.566c-0.359-0.531-0.811-0.99-1.297-1.418c-2.488-2.191-6.383-3.02-9.467-2.27
			c-0.945,0.23-1.834,0.572-2.557,1.109c-0.227,0.168-0.416,0.393-0.578,0.658C428.25,268.971,429.484,275.369,431.484,280.396z"/>
		<path fill="#839C7C" d="M449.246,317.461c0.043,0,0.086,0,0.119-0.01c0.014-0.002,0.023-0.012,0.035-0.016
			c0.031-0.014,0.063-0.031,0.086-0.055c0.008-0.008,0.014-0.018,0.02-0.027c0.021-0.029,0.041-0.061,0.053-0.1
			c0.004-0.01,0.006-0.021,0.008-0.033c0.012-0.043,0.018-0.09,0.02-0.141c0-0.012,0-0.025,0-0.037
			c0.002-0.057-0.002-0.115-0.01-0.18c-0.002-0.012-0.004-0.023-0.006-0.035c-0.01-0.068-0.023-0.141-0.039-0.217
			c-0.002-0.01-0.004-0.02-0.008-0.029c-0.016-0.072-0.037-0.146-0.059-0.223c-0.006-0.025-0.014-0.049-0.02-0.074
			c-0.023-0.076-0.049-0.154-0.076-0.232c-0.006-0.021-0.014-0.041-0.02-0.063c-0.031-0.088-0.063-0.176-0.096-0.264
			c-0.002-0.01-0.006-0.018-0.008-0.025c-0.139-0.369-0.293-0.74-0.422-1.063c-0.01-0.025-0.021-0.053-0.031-0.076
			c-0.008-0.021-0.016-0.043-0.025-0.064c-0.061-0.156-0.117-0.303-0.156-0.42c-0.164-0.516,0.139-1.572,0.344-2.543
			c0.205-0.969,0.313-1.85-0.24-2.012c-1.104-0.322-2.514-0.453-3.131-1.465c0-0.002-0.002-0.002-0.002-0.002l-0.006-0.004
			c-0.26-0.432-0.494-0.838-0.709-1.195c-0.465-0.777-0.82-1.32-1.063-1.355c-0.082-0.01-0.15,0.035-0.207,0.15
			c-0.014,0.027-0.027,0.055-0.041,0.082c-0.008,0.018-0.018,0.035-0.025,0.055c0.002-0.004,0.004-0.01,0.006-0.014
			c-0.002,0.004-0.004,0.01-0.008,0.014c-0.057,0.131-0.143,0.34-0.264,0.625c-0.09,0.223-0.193,0.479-0.313,0.77
			c-0.654,1.59-1.627,4.045-2.131,5.754c-1.633,1.195-3.664,3.014-5.541,5.531c1.299-9.5,1.816-19.689,1.541-30.545
			c1.928-1.744,5.016-4.525,5.951-5.297c0.172-0.143,0.268-0.27,0.299-0.385c0.092-0.348-0.396-0.584-1.07-0.76
			c-0.898-0.232-2.121-0.359-2.729-0.5l-0.002-0.002l-0.002-0.002l-0.004-0.002c-0.076-0.018-0.156-0.047-0.238-0.088
			c-1.254-0.607-3.297-3.57-4.217-2.723c-0.145,0.131-0.289,0.273-0.434,0.418c-0.445,0.445-0.902,0.918-1.406,1.273
			c-0.449,0.314-0.934,0.535-1.484,0.539l-0.012,0.004c-2.01,0.004-3.574-0.098-3.635,0.328c-0.008,0.057,0.014,0.125,0.063,0.201
			c0.004,0.006,0.004,0.01,0.008,0.016c0.006,0.004,0.008,0.01,0.008,0.01c0.012,0.021,0.049,0.072,0.078,0.113
			c0.1,0.131,0.262,0.363,0.49,0.668c0.158,0.219,0.344,0.469,0.549,0.75c1.439,1.928,3.877,5.107,5.242,6.377
			c0.285,13.514-0.67,25.953-2.855,37.289c-1.311-5.387-3.869-13.105-8.658-20.293c-0.635-0.953-1.305-1.891-2.018-2.816
			c-0.045-0.055-0.09-0.115-0.135-0.172c0.285-1.947,0.703-4.705,0.865-5.539c0,0,0,0-0.002-0.006
			c0.064-0.332-0.027-0.479-0.215-0.506c-0.363-0.053-1.084,0.344-1.719,0.717c-0.352,0.205-0.676,0.404-0.9,0.516l-0.006,0.002
			c-0.695,0.34-2.811-0.209-3.631,0.127c-0.182,0.074-0.301,0.191-0.326,0.373c-0.139,0.998-0.072,2.238-0.869,2.904l-0.002,0.002
			v0.002c-0.996,0.824-1.844,1.453-1.969,1.793c-0.006,0.016-0.006,0.031-0.01,0.047c0,0.01-0.006,0.021-0.006,0.029
			c0,0.072,0.049,0.127,0.152,0.16c0.033,0.01,0.064,0.02,0.096,0.029c0.014,0.004,0.029,0.008,0.043,0.012
			c0.123,0.035,0.316,0.082,0.57,0.146c0.199,0.051,0.439,0.111,0.703,0.178c1.588,0.389,4.111,0.975,5.641,1.16
			c0.311,0.412,0.609,0.826,0.902,1.24c0.686,0.982,1.334,1.98,1.928,2.984c5.838,9.736,7.736,20.146,8.197,23.219
			c-5.049,20.799-14.547,37.578-28.441,50.139c-12.988,11.73-28.23,18.236-42.268,21.773c-2.07,0.52-4.107,0.979-6.113,1.375
			c-1.555,1.17-3.129,2.309-4.721,3.422c0.598-0.098,1.197-0.195,1.805-0.303l0.016,0.082l3.914-0.646l15.178-2.506
			c0.086,1.34,0.473,2.814,1.584,3.777c2.508,2.17,3.146,10.033,3.146,10.033c3.033-6.637,0.631-11.533-1.666-14.318l32.506-5.363
			c1.828,1.719,5.256,4.957,6.16,5.895c0.006,0.008,0.012,0.012,0.02,0.018c0.059,0.061,0.115,0.107,0.17,0.146
			c0.021,0.014,0.041,0.023,0.059,0.035c0.047,0.025,0.09,0.045,0.131,0.055c0.012,0.004,0.025,0.01,0.037,0.012
			c0.045,0.008,0.086,0.006,0.123-0.004c0.006,0,0.012-0.006,0.018-0.008c0.018-0.006,0.035-0.018,0.051-0.025
			c0.029-0.016,0.055-0.033,0.08-0.057c0.018-0.016,0.035-0.035,0.051-0.055c0.021-0.027,0.043-0.059,0.064-0.092
			c0.014-0.025,0.029-0.049,0.043-0.076c0.02-0.041,0.039-0.086,0.057-0.131c0.012-0.029,0.023-0.057,0.035-0.09
			c0.025-0.076,0.049-0.156,0.07-0.244c0.012-0.049,0.021-0.102,0.033-0.154c0.01-0.045,0.02-0.09,0.027-0.137
			c0.012-0.061,0.021-0.123,0.031-0.186c0.008-0.041,0.014-0.084,0.02-0.125c0.012-0.07,0.021-0.141,0.029-0.213
			c0.004-0.033,0.008-0.066,0.012-0.1c0.061-0.52,0.098-1.074,0.137-1.537c0.004-0.053,0.008-0.105,0.012-0.154
			c0.004-0.033,0.006-0.064,0.01-0.096c0.014-0.15,0.029-0.289,0.047-0.404c0-0.002,0.002-0.002,0.002-0.002
			c0.189-1.24,3.43-3.76,2.453-4.666c-0.051-0.049-0.107-0.096-0.162-0.145c-0.967-0.855-2.219-1.703-2.332-2.998v-0.006
			c-0.119-1.43-0.164-2.639-0.336-3.223c-0.076-0.26-0.178-0.391-0.32-0.369c-0.051,0.008-0.105,0.031-0.166,0.078
			c-0.006,0.002-0.018,0.006-0.018,0.006c-0.023,0.023-0.072,0.066-0.113,0.102c-0.131,0.105-0.338,0.285-0.615,0.525
			c-0.203,0.18-0.441,0.385-0.703,0.615c-1.633,1.432-4.215,3.754-5.553,5.268l-31.059,5.127
			c10.227-3.957,20.514-9.693,29.713-17.996c14.291-12.91,24.045-30.111,29.219-51.395l0.195-0.02
			c-0.012-0.064-0.027-0.248-0.066-0.518c0.508-2.102,0.965-4.252,1.377-6.438c1.967-5.465,5.473-8.953,7.994-10.891
			c2.1,0.635,5.877,1.779,6.92,2.148l0.014,0.004c0.033,0.012,0.057,0.014,0.088,0.021c0.047,0.012,0.098,0.029,0.139,0.033
			C449.211,317.465,449.227,317.461,449.246,317.461z"/>
		<path fill="#839C7C" d="M411.963,303.488c0.004,0.002,0.008,0.006,0.014,0.008c0.002,0,0.004,0.002,0.008,0.002
			c-0.002-0.002-0.006-0.004-0.01-0.006C411.971,303.492,411.967,303.49,411.963,303.488z"/>
		<path fill="#EDD48A" d="M443.805,305.502c0.242,0.035,0.598,0.578,1.063,1.355c0.215,0.359,0.453,0.766,0.713,1.197l0.002,0.002
			c0,0,0.002,0,0.002,0.002c2.83-3.723,7.016-7.49,9.516-7.482c-1.336-1.52-3.076-2.592-4.801-2.742
			c-2.123-0.186-4.844,3.676-6.703,7.818C443.652,305.537,443.723,305.49,443.805,305.502z"/>
		<path fill="#EDD48A" d="M443.557,305.734c0.014-0.027,0.027-0.055,0.039-0.082c-0.004,0.008-0.008,0.008-0.012,0.016
			c-0.01,0.021-0.029,0.066-0.047,0.107c-0.002,0.004-0.004,0.01-0.006,0.014C443.539,305.77,443.549,305.752,443.557,305.734z"/>
		<path fill="#EDD48A" d="M458.303,313.059c-2.244,1.021-6.277,1.143-9.688,1.02c0,0,0,0,0,0.002
			c0.037,0.117,0.092,0.262,0.152,0.418c0.01,0.021,0.018,0.043,0.025,0.064c0.01,0.023,0.021,0.051,0.031,0.076
			c0.129,0.322,0.283,0.693,0.422,1.063c0.002,0.008,0.006,0.016,0.008,0.025c0.033,0.088,0.064,0.176,0.096,0.264
			c0.006,0.021,0.014,0.041,0.02,0.063c0.027,0.078,0.053,0.156,0.076,0.232c0.006,0.025,0.014,0.049,0.02,0.074
			c0.021,0.076,0.043,0.15,0.059,0.223c0.004,0.01,0.006,0.02,0.008,0.029c0.016,0.076,0.029,0.148,0.039,0.217
			c0.002,0.012,0.004,0.023,0.006,0.035c0.008,0.064,0.012,0.123,0.01,0.18c0,0.012,0,0.025,0,0.037
			c-0.002,0.051-0.008,0.098-0.02,0.141c-0.002,0.012-0.004,0.023-0.008,0.033c-0.012,0.039-0.031,0.07-0.053,0.1
			c-0.006,0.01-0.012,0.02-0.02,0.027c-0.023,0.023-0.055,0.041-0.086,0.055c-0.012,0.006-0.021,0.014-0.035,0.016
			c-0.033,0.01-0.076,0.01-0.119,0.01c-0.02,0-0.035,0.004-0.057,0.002c-0.041-0.004-0.092-0.021-0.139-0.033
			c-0.031-0.008-0.057-0.01-0.092-0.021c3.789,1.412,7.918,2.436,9.418,0.947c2.027-2.012,2.617-5.422,1.955-8.232
			c-0.1,0.549-0.24,1.088-0.473,1.592C459.6,312.277,459.051,312.719,458.303,313.059z"/>
		<path fill="#F6E4BC" d="M457.801,302.107c-0.592-0.598-1.238-1.104-1.957-1.398c-0.225-0.092-0.475-0.133-0.744-0.133
			c-2.5-0.008-6.686,3.76-9.516,7.482c0.617,1.012,2.027,1.143,3.131,1.465c0.553,0.162,0.445,1.043,0.24,2.012
			c-0.205,0.971-0.506,2.027-0.342,2.543c3.412,0.123,7.445,0.002,9.689-1.02c0.748-0.34,1.297-0.781,1.557-1.344
			c0.232-0.504,0.373-1.043,0.473-1.592C460.846,307.305,459.729,304.053,457.801,302.107z"/>
		<path fill="#EDD48A" d="M411.822,303.332c0-0.008,0.006-0.02,0.006-0.029c0.004-0.016,0.004-0.031,0.01-0.047
			c0.125-0.34,0.969-0.967,1.967-1.793l0.002-0.002l0.002-0.002c-3.574-1.967-7.357-5.094-7.697-7.262
			c-1.137,1.352-1.857,2.982-1.768,4.492c0.111,1.863,3.797,3.723,7.619,4.799c0.004,0.002,0.008,0.004,0.012,0.004
			C411.871,303.459,411.822,303.404,411.822,303.332z"/>
		<path fill="#EDD48A" d="M411.984,303.498c0.002,0.002,0.004,0.004,0.01,0.006c0.023,0.006,0.076,0.02,0.121,0.031
			c-0.016-0.004-0.029-0.008-0.045-0.014c-0.031-0.01-0.063-0.02-0.096-0.029C411.979,303.494,411.982,303.496,411.984,303.498z"/>
		<path fill="#EDD48A" d="M418.637,298.053h0.002c0.225-0.113,0.551-0.311,0.902-0.516c0.635-0.373,1.355-0.77,1.719-0.717
			c0.189,0.025,0.281,0.174,0.219,0.506c0.738-3.469,1.098-7.186-0.387-8.297c-1.99-1.488-4.984-1.551-7.328-0.631
			c0.471,0.02,0.936,0.072,1.383,0.205C417.236,289.217,418.197,294.086,418.637,298.053z"/>
		<path fill="#F6E4BC" d="M413.809,301.459c0.797-0.666,0.73-1.906,0.869-2.904c0.025-0.182,0.145-0.299,0.326-0.373
			c0.82-0.338,2.938,0.213,3.633-0.129c-0.439-3.967-1.4-8.836-3.49-9.449c-0.447-0.133-0.912-0.186-1.383-0.205
			c-2.523-0.105-5.229,1.293-6.678,3.232c-0.443,0.59-0.797,1.217-0.961,1.877c-0.053,0.215-0.051,0.447-0.014,0.689
			C406.451,296.365,410.234,299.492,413.809,301.459z"/>
	</g>
	<g>
		<path fill="#839C7C" d="M167.451,414.389c0.062,1.164,0.026,2.291-0.171,3.352l0.001,0.006c-0.614-0.445-1.229-0.895-1.84-1.346
			c-1.813-0.371-3.624-0.781-5.432-1.234c-1.946-2.135-3.648-4.533-5.075-7.133c-1.035-1.879-1.917-3.861-2.643-5.914
			c0.112,0.045,0.215,0.1,0.322,0.152c3.271,2.957,6.633,5.787,10.066,8.49c0.205,0.268,0.395,0.547,0.584,0.828
			c0.015-0.115,0.035-0.227,0.05-0.342C164.678,412.322,166.053,413.367,167.451,414.389z"/>
		<path fill="#839C7C" d="M167.281,417.746c-0.125,0.713-0.318,1.385-0.587,2.031c-0.025,0.057-0.051,0.113-0.082,0.172
			c-2.159,4.795-10.779,10.281-11.458,15.162c0.509-3.65,1.646-7.193,3.331-10.389c-2.688,2.926-5.72,5.465-8.981,7.518
			c0.656-4.256,4.44-6.885,7.835-8.939c-5.268,0.285-10.542,0.566-15.809,0.852c5.051-2.176,10.107-4.354,15.156-6.535
			c0.272-0.113,0.539-0.227,0.809-0.346c-1.938-1.504-4.282-2.352-6.656-2.41c3.202-0.262,6.436-0.018,9.57,0.748
			c-0.136-0.143-0.273-0.291-0.399-0.443c1.808,0.453,3.619,0.863,5.432,1.234C166.051,416.852,166.667,417.301,167.281,417.746z"/>
		<path id="XMLID_4293_" fill="#839C7C" d="M126.01,409.955c-2.206,0.643-4.386,1.447-6.518,2.402
			c1.417-2.316,3.179-4.424,5.188-6.205c-3.017,0.395-6.044,0.279-8.928-0.338c2.466-1.34,5.078-2.324,7.731-2.912
			c-1.822-1.479-3.462-3.195-4.879-5.104c2.083,0.717,4.166,1.434,6.249,2.152c-1.279-1.938-1.991-4.314-2.03-6.781
			c1.531,2.984,3.491,5.693,5.801,8.02c-0.357-3.178-0.716-6.357-1.073-9.535c0.51,2.631,1.587,5.08,3.13,7.123
			c0.373-2.688,0.745-5.375,1.118-8.064c-0.714,5.146,3.176,9.984,0.985,15.605c-1.814,4.654-7.351,8.58-11.188,11.211
			C122.952,414.957,124.527,412.465,126.01,409.955z"/>
		<path fill="#F6E4BC" d="M77.412,373.535c-2.363,7.527,10.003,15.475,15.092,18.475c1.898,1.119,4.092,2.33,6.323,2.551
			c3.322,0.758,6.438,0.182,8.158-3.324c3.344-6.818-6.978-14.654-11.597-17.607C91.034,370.846,79.946,365.459,77.412,373.535z"/>
		<path fill="#839C7C" d="M102.217,398.879c-1.897,2.148-4.476,3.479-6.976,4.748c3.263-3.031,6.007-6.666,8.024-10.629
			c0.309-0.605,0.605-1.236,0.676-1.893c0.07-0.668-0.1-1.307-0.274-1.926c-0.827-2.93-1.786-5.809-2.873-8.621
			c2.245,2.293,4.191,4.893,5.785,7.729c2.057-3.211,2.627-7.268,1.49-10.59c1.09,1.725,2.219,3.598,2.077,5.768
			c-0.104,1.588-0.882,3.117-1.269,4.691c-0.321,1.307-0.156,2.701,0.257,3.865C105.852,393.43,104.597,396.186,102.217,398.879z"/>
		<path fill="#839C7C" d="M171.713,420.85c-1.707-0.27-3.406-0.572-5.102-0.9c-3.342-0.658-6.658-1.436-9.926-2.332
			c-1.731-0.471-3.45-0.975-5.155-1.516c-6.584-2.076-13.313-4.625-19.811-7.725c-3.276-1.566-6.495-3.27-9.604-5.129
			c-5.153-3.072-10.003-6.559-14.327-10.512c-0.363-0.324-0.722-0.656-1.071-0.996c-0.275-0.26-0.546-0.52-0.815-0.781
			c-0.769-0.746,0.183-2.189,1.122-1.564c0.163,0.111,0.323,0.215,0.486,0.324c0.423,0.281,0.848,0.568,1.273,0.855
			c4.062,2.715,8.069,5.471,12.199,8.047c2.55,1.6,5.142,3.133,7.816,4.559c1.421,0.756,2.852,1.484,4.296,2.195
			c6.314,3.08,12.861,5.678,19.58,7.752c2.434,0.76,4.879,1.434,7.333,2.039c1.808,0.453,3.619,0.863,5.432,1.234
			c0.61,0.451,1.226,0.9,1.84,1.346C168.745,418.801,170.221,419.84,171.713,420.85z"/>
	</g>
	<g>
		<path fill="#52735F" d="M421.891,186.643c1.084,0.426,2.166,0.742,3.236,0.89c0.711,0.105,1.42,0.139,2.117,0.084
			c5.23-0.409,13.283-7.03,18.188-6.13c-3.625-0.665-7.352-0.7-10.912-0.103c3.625-1.635,6.986-3.71,9.961-6.167
			c-4.248-0.713-7.93,2.051-10.953,4.628c1.93-4.91,3.857-9.825,5.785-14.74c-3.852,4.332-7.703,8.664-11.553,12.997
			c-0.82-2.318-0.887-4.81-0.195-7.081c-1.26,2.958-2.043,6.106-2.301,9.318c-1.465-2.708-3.314-5.255-5.471-7.577
			c-1.461-1.573-3.061-3.037-4.785-4.368c0.012,0.118,0.029,0.233,0.049,0.354c1.777,4.033,3.404,8.113,4.891,12.226
			c0.191,0.275,0.393,0.546,0.598,0.814c-0.109-0.023-0.221-0.039-0.33-0.061C420.799,183.358,421.359,184.993,421.891,186.643z"/>
		<path id="XMLID_4292_" fill="#52735F" d="M430.713,145.91c1.307-1.893,2.754-3.709,4.332-5.431
			c-2.645,0.616-5.199,1.625-7.523,2.973c1.324-2.74,2.166-5.649,2.486-8.581c-2.047,1.919-3.801,4.089-5.195,6.424
			c-0.83-2.195-1.943-4.292-3.309-6.237c0.025,2.203,0.051,4.406,0.076,6.608c-1.436-1.823-3.469-3.247-5.797-4.059
			c2.352,2.392,4.307,5.104,5.787,8.028c-2.904-1.339-5.809-2.679-8.713-4.018c2.336,1.312,4.322,3.104,5.777,5.212
			c-2.67-0.492-5.338-0.983-8.006-1.475c5.107,0.941,8.477,6.155,14.502,5.843c4.988-0.258,10.457-4.279,14.16-7.094
			C436.424,144.579,433.564,145.291,430.713,145.91z"/>
		<path fill="#F0EFEF" d="M411.426,88.323c7.889,0.125,11.543,14.362,12.791,20.137c0.465,2.155,0.924,4.616,0.434,6.805
			c-0.326,3.392-1.854,6.168-5.723,6.698c-7.521,1.03-11.717-11.231-13.066-16.545C404.588,100.409,402.963,88.189,411.426,88.323z"
			/>
		<path fill="#52735F" d="M427.684,119.841c2.635-1.126,4.709-3.155,6.699-5.128c-3.904,2.144-8.217,3.605-12.611,4.275
			c-0.674,0.102-1.365,0.186-2.01,0.045c-0.656-0.143-1.209-0.505-1.742-0.866c-2.521-1.707-4.951-3.521-7.281-5.438
			c1.471,2.852,3.328,5.518,5.518,7.922c-3.695,0.942-7.725,0.208-10.521-1.916c1.295,1.577,2.719,3.237,4.822,3.785
			c1.541,0.4,3.236,0.143,4.852,0.271c1.342,0.106,2.613,0.702,3.588,1.459C421.367,121.578,424.379,121.253,427.684,119.841z"/>
		<path fill="#52735F" d="M426.686,192.719c1.129-6.854,1.74-13.787,1.84-20.652c0.24-17.004-1.955-35.779-9.521-51.223
			c-0.465-0.956-2.135-0.508-1.838,0.577c2.277,8.319,4.781,16.481,6.238,25.005c1.461,8.516,2.107,17.16,1.936,25.797
			c-0.086,4.423-0.396,8.804-0.91,13.144C425.23,187.805,425.988,190.257,426.686,192.719z"/>
	</g>
	<g>
		<path fill="#839C7C" d="M384.436,128.789c1.164,0.012,2.287-0.079,3.34-0.322c0.701-0.155,1.375-0.376,2.008-0.676
			c4.74-2.248,9.902-11.305,14.805-12.213c-3.623,0.672-7.117,1.967-10.229,3.795c2.803-2.82,5.203-5.958,7.105-9.313
			c-4.223,0.849-6.678,4.743-8.582,8.229c0.053-5.275,0.1-10.554,0.148-15.833c-2.053,5.42-4.107,10.841-6.16,16.261
			c-1.592-1.873-2.543-4.177-2.705-6.546c-0.123,3.213,0.268,6.434,1.172,9.527c-2.334-2.007-4.969-3.728-7.813-5.128
			c-1.926-0.949-3.943-1.746-6.027-2.375c0.053,0.105,0.109,0.208,0.172,0.313c3.098,3.134,6.072,6.366,8.928,9.679
			c0.277,0.189,0.561,0.371,0.85,0.548c-0.111,0.018-0.221,0.043-0.332,0.061C382.242,126.11,383.35,127.438,384.436,128.789z"/>
		<path id="XMLID_4291_" fill="#839C7C" d="M378.152,87.589c0.545-2.233,1.252-4.447,2.111-6.619
			c-2.252,1.519-4.277,3.373-5.969,5.46c0.26-3.032,0.01-6.051-0.736-8.904c-1.229,2.523-2.094,5.177-2.563,7.854
			c-1.561-1.755-3.348-3.316-5.316-4.647c0.809,2.049,1.619,4.099,2.428,6.147c-1.992-1.191-4.398-1.796-6.863-1.725
			c3.049,1.396,5.844,3.233,8.27,5.437c-3.191-0.216-6.383-0.432-9.574-0.647c2.65,0.392,5.146,1.358,7.256,2.809
			c-2.668,0.492-5.336,0.984-8.006,1.477c5.109-0.942,10.115,2.728,15.633,0.288c4.568-2.021,8.244-7.727,10.701-11.677
			C383.014,84.309,380.596,85.994,378.152,87.589z"/>
		<path fill="#F6E4BC" d="M339.6,40.664c7.414-2.697,15.904,9.302,19.131,14.252c1.203,1.847,2.51,3.983,2.83,6.203
			c0.906,3.286,0.469,6.424-2.957,8.298c-6.66,3.645-14.951-6.316-18.107-10.798C337.521,54.394,331.645,43.557,339.6,40.664z"/>
		<path fill="#839C7C" d="M366.027,64.313c2.061-1.992,3.273-4.626,4.43-7.18c-2.883,3.395-6.391,6.298-10.258,8.491
			c-0.592,0.335-1.209,0.66-1.861,0.759c-0.664,0.1-1.311-0.041-1.938-0.188c-2.963-0.695-5.881-1.524-8.74-2.485
			c2.391,2.14,5.076,3.968,7.98,5.434c-3.117,2.198-7.145,2.949-10.514,1.962c1.771,1.012,3.693,2.056,5.855,1.817
			c1.58-0.174,3.072-1.02,4.629-1.477c1.291-0.379,2.691-0.276,3.873,0.084C360.746,68.188,363.443,66.811,366.027,64.313z"/>
		<path fill="#839C7C" d="M391.08,132.758c-1.389-6.807-3.289-13.502-5.645-19.951c-5.838-15.973-14.584-32.73-27.158-44.461
			c-0.777-0.728-2.178,0.287-1.514,1.194c5.094,6.961,10.346,13.693,14.746,21.137c4.4,7.436,8.086,15.281,11.006,23.411
			c1.496,4.164,2.77,8.367,3.836,12.605C387.969,128.685,389.553,130.705,391.08,132.758z"/>
	</g>
	<g>
		<g>
			<path fill="none" d="M50.067,224.075c0.074,0.025,0.148,0.055,0.224,0.078c0.07,0.021,0.142,0.033,0.212,0.053
				C50.357,224.167,50.211,224.125,50.067,224.075z"/>
			<path fill="none" d="M42.38,230.284c-0.003-0.004-0.006-0.008-0.009-0.012C42.375,230.276,42.377,230.28,42.38,230.284z"/>
			<path fill="none" d="M55.429,222.981c0.112-0.003,0.192,0.022,0.239,0.078C55.622,223.003,55.542,222.977,55.429,222.981z"/>
			<path fill="none" d="M42.526,230.405c0.007,0.004,0.015,0.008,0.022,0.012C42.541,230.413,42.533,230.409,42.526,230.405z"/>
			<path fill="none" d="M43.364,228.958c-0.019,0.014-0.037,0.027-0.056,0.04C43.327,228.985,43.345,228.971,43.364,228.958z"/>
			<path fill="none" d="M43.097,229.151c-0.028,0.021-0.055,0.043-0.082,0.063C43.042,229.194,43.069,229.172,43.097,229.151z"/>
			<path fill="none" d="M42.852,229.346c-0.026,0.022-0.052,0.045-0.077,0.066C42.8,229.391,42.826,229.369,42.852,229.346z"/>
			<path fill="none" d="M42.634,229.545c-0.019,0.019-0.038,0.037-0.056,0.057C42.596,229.583,42.616,229.564,42.634,229.545z"/>
			<path fill="none" d="M42.313,230.12c0.001,0.01,0.006,0.018,0.007,0.025C42.319,230.137,42.314,230.129,42.313,230.12z"/>
			<path fill="none" d="M42.449,229.758c-0.006,0.008-0.014,0.016-0.019,0.023C42.435,229.774,42.443,229.766,42.449,229.758z"/>
			<path fill="#EDD48A" d="M55.613,223.711c-0.069,0.293-0.171,0.715-0.296,1.223C55.422,224.532,55.52,224.124,55.613,223.711z"/>
			<path fill="#EDD48A" d="M52.244,224.168L52.244,224.168c1.475-0.611,2.661-1.178,3.186-1.188
				c0.113-0.004,0.192,0.022,0.239,0.078c0.041,0.047,0.057,0.119,0.041,0.219c1.082-5.073,1.176-10.464-0.908-11.728
				c-1.694-1.028-4.029-1.215-6.291-0.718C50.824,212.519,52.147,218.823,52.244,224.168z"/>
			<path fill="#EDD48A" d="M42.526,230.405c-0.063-0.037-0.111-0.078-0.146-0.121c-0.003-0.004-0.006-0.008-0.009-0.012
				c-0.01-0.014-0.022-0.027-0.03-0.041c-0.014-0.027-0.017-0.057-0.021-0.086c-0.001-0.008-0.006-0.016-0.007-0.025
				c-0.009-0.104,0.033-0.217,0.117-0.338c0.005-0.008,0.013-0.016,0.019-0.023c0.037-0.051,0.08-0.104,0.13-0.156
				c0.018-0.02,0.037-0.038,0.056-0.057c0.044-0.044,0.09-0.088,0.141-0.133c0.025-0.021,0.051-0.044,0.077-0.066
				c0.052-0.043,0.106-0.088,0.163-0.132c0.027-0.021,0.054-0.042,0.082-0.063c0.067-0.051,0.139-0.102,0.211-0.153
				c0.019-0.013,0.037-0.026,0.056-0.04c0.696-0.485,1.558-0.967,1.994-1.281c-4.314-2.924-9.354-7.002-8.791-9.788
				c0.123-0.607,0.333-1.193,0.604-1.755c-2.495,2.148-4.239,5.672-3.73,8.885c0.379,2.389,4.892,4.238,9.351,5.498
				c-0.098-0.029-0.176-0.063-0.242-0.1C42.541,230.413,42.533,230.409,42.526,230.405z"/>
			<path fill="#F6E4BC" d="M36.567,217.889c-0.563,2.786,4.477,6.864,8.791,9.788h0.001c0.999-0.725,1.75-4.717,2.992-4.273
				c0.548,0.201,1.129,0.471,1.716,0.672c0.145,0.051,0.29,0.092,0.436,0.131c0.59,0.15,1.18,0.193,1.741-0.037
				c-0.097-5.345-1.42-11.65-3.733-13.336c-0.249-0.182-0.51-0.313-0.781-0.38c-0.863-0.214-1.804-0.186-2.755-0.034
				c-3.113,0.494-6.382,2.748-7.804,5.715C36.9,216.696,36.69,217.281,36.567,217.889z"/>
			<path fill="#52735F" d="M99.732,179.65c-0.001-0.068,0-0.136-0.001-0.204c-0.188-0.366-0.344-0.751-0.459-1.157
				c-0.107-0.38-0.211-0.765-0.315-1.147c-8.005,6.674-14.727,13.841-20.14,21.492c-0.634,0.891-1.242,1.791-1.84,2.696
				c-0.909,1.377-1.777,2.77-2.604,4.179c-0.12,0.205-0.244,0.408-0.363,0.613c-3.958,6.862-6.943,14.074-8.938,21.636
				c-3.132,11.831-3.52,23.459-2.372,34.219l-9.55-29.566c0.714-1.85,1.58-5.127,2.102-7.211c0.022-0.092,0.044-0.178,0.064-0.266
				c0.125-0.508,0.227-0.93,0.296-1.223c0.045-0.187,0.077-0.322,0.092-0.391c0.004-0.018,0.003-0.029,0.005-0.043
				c0.015-0.1,0-0.172-0.041-0.219c-0.047-0.056-0.127-0.081-0.24-0.078c-0.523,0.01-1.71,0.576-3.185,1.188l0,0
				c-0.562,0.23-1.151,0.188-1.741,0.037c-0.07-0.02-0.142-0.031-0.212-0.053c-0.075-0.023-0.149-0.053-0.224-0.078
				c-0.587-0.201-1.168-0.471-1.716-0.672c-1.242-0.443-1.993,3.549-2.992,4.273h-0.001c-0.437,0.314-1.298,0.797-1.994,1.281
				c-0.019,0.014-0.037,0.027-0.056,0.04c-0.072,0.052-0.144,0.103-0.211,0.153c-0.028,0.021-0.055,0.043-0.082,0.063
				c-0.057,0.044-0.111,0.089-0.163,0.132c-0.026,0.022-0.052,0.045-0.077,0.066c-0.051,0.045-0.097,0.089-0.141,0.133
				c-0.019,0.019-0.038,0.037-0.056,0.057c-0.05,0.053-0.093,0.105-0.13,0.156c-0.006,0.008-0.014,0.016-0.019,0.023
				c-0.084,0.121-0.126,0.234-0.117,0.338c0.001,0.01,0.005,0.018,0.007,0.025c0.005,0.029,0.008,0.059,0.021,0.086
				c0.008,0.014,0.021,0.027,0.03,0.041c0.003,0.004,0.006,0.008,0.009,0.012c0.034,0.043,0.082,0.084,0.146,0.121
				c0.007,0.004,0.015,0.008,0.022,0.012c0.066,0.037,0.145,0.07,0.242,0.1c0.001,0.001,0.003,0.002,0.004,0.002
				c0.619,0.182,2.021,0.664,3.57,1.199c1.542,0.533,3.226,1.133,4.399,1.543l10.008,30.986c-3.489-0.754-8.877-0.643-13.337,5.027
				c0,0,7.202-2.996,10.244-1.781c1.345,0.543,2.815,0.215,4.033-0.318l5.885,18.207l0.065-0.021
				c3.536,11.223,8.02,20.264,11.112,25.811c-1.555-4.67-2.916-9.379-4.099-14.125c-7.061-16.551-14.182-42.121-7.153-68.66
				c1.167-4.406,2.679-8.695,4.538-12.863c0.71-1.598,1.474-3.178,2.286-4.741c0.786-1.511,1.618-3.004,2.499-4.48
				c0.01-0.016,0.021-0.032,0.03-0.048c5.469-9.182,12.755-17.715,21.823-25.573c0.292-0.099,0.659-0.22,1.089-0.355
				C99.758,180.103,99.737,179.878,99.732,179.65z"/>
		</g>
		<path fill="#EDD48A" d="M65.607,120.664L65.607,120.664c1.843,0.712,3.268,1.133,2.666,1.532
			c-0.144,0.095-0.674,0.441-1.401,0.902c4.231-2.578,8.469-6.497,7.852-8.787c-0.445-1.651-1.791-3.159-3.499-4.197
			C71.664,112.546,68.731,117.271,65.607,120.664z"/>
		<path fill="#EDD48A" d="M59.219,118.75c-0.95-4.396-1.666-9.944,0.346-11.348c0.438-0.306,0.918-0.546,1.422-0.736
			c-2.837-0.146-6.025,1.015-7.622,3.323c-1.188,1.718,0.528,5.563,2.562,9.007C55.168,117.661,58.163,118.605,59.219,118.75z"/>
		<path fill="#F6E4BC" d="M59.219,118.75L59.219,118.75c1.058,0.145,3.905-1.902,4.413-0.883c0.507,1.02,0.879,2.374,1.975,2.796
			c3.124-3.394,6.057-8.118,5.617-10.55c-0.047-0.262-0.132-0.499-0.262-0.703c-0.411-0.647-1.015-1.19-1.698-1.662
			c-2.238-1.547-5.621-2.088-8.277-1.083c-0.504,0.19-0.983,0.431-1.422,0.736C57.553,108.806,58.269,114.354,59.219,118.75z"/>
		<path fill="#EDD48A" d="M114.765,54.445c0.105,3.502-4.996,9.513-10.09,13.616h0.001c2.435,1.384,4.344,2.273,3.417,2.707
			c-0.221,0.103-1.037,0.477-2.153,0.97c6.475-2.727,13.236-7.333,12.851-10.674C118.512,58.656,116.943,56.259,114.765,54.445z"/>
		<path fill="#EDD48A" d="M96.121,64.039c-0.411-6.364-0.252-14.294,2.863-15.841c0.686-0.34,1.416-0.577,2.169-0.739
			c-3.95-0.805-8.679,0.16-11.405,3.066c-2.025,2.159-0.426,7.911,1.704,13.167C90.667,61.661,94.668,63.614,96.121,64.039z"/>
		<path fill="#F6E4BC" d="M96.121,64.039L96.121,64.039c1.452,0.425,5.875-1.849,6.373-0.313c0.497,1.536,0.734,3.512,2.182,4.335
			c5.094-4.104,10.195-10.114,10.09-13.616c-0.012-0.377-0.081-0.727-0.22-1.04c-0.44-0.994-1.174-1.882-2.033-2.688
			c-2.809-2.633-7.428-4.101-11.359-3.258c-0.753,0.162-1.483,0.398-2.169,0.739C95.869,49.745,95.709,57.675,96.121,64.039z"/>
		<path fill="#52735F" d="M104.676,68.062L104.676,68.062c-1.448-0.823-1.686-2.8-2.183-4.335c-0.498-1.536-4.921,0.738-6.373,0.313
			l0,0c-1.452-0.425-5.453-2.378-4.669-0.346l0,0c0.784,2.033,3.945,11.607,3.945,11.607c0.023,0.072,0.099,0.116,0.213,0.137
			c-0.863,3.045-2.013,7.228-3.334,12.333c0.866,0.098,1.698,0.304,2.453,0.617c1.523-5.879,2.815-10.521,3.699-13.602
			c2.312-0.795,5.434-2.128,7.512-3.047c1.116-0.493,1.933-0.867,2.153-0.97C109.02,70.335,107.111,69.446,104.676,68.062z"/>
		<path fill="#EDD48A" d="M110.514,90.504L110.514,90.504c0.569,1.989,1.117,3.444,0.404,3.194c-0.169-0.06-0.791-0.283-1.633-0.599
			c4.825,1.905,10.771,2.967,12.292,1.005c1.098-1.415,1.508-3.491,1.296-5.573C121.12,90.435,115.322,90.97,110.514,90.504z"/>
		<path fill="#EDD48A" d="M108.078,83.961c3.071-3.571,7.253-7.674,9.696-6.88c0.531,0.173,1.035,0.423,1.513,0.723
			c-1.67-2.461-4.653-4.392-7.59-4.267c-2.186,0.093-4.313,3.957-5.906,7.832c0.001-0.001,0.001-0.002,0.002-0.003
			C106.429,79.888,107.531,82.987,108.078,83.961z"/>
		<path fill="#F6E4BC" d="M108.078,83.961L108.078,83.961c0.547,0.974,4.056,2.06,3.524,3.127c-0.53,1.067-1.427,2.233-1.088,3.416
			c4.808,0.466,10.605-0.07,12.359-1.972c0.188-0.205,0.333-0.425,0.421-0.663c0.281-0.752,0.354-1.599,0.316-2.469
			c-0.122-2.846-1.808-6.013-4.324-7.597c-0.478-0.3-0.981-0.55-1.513-0.723C115.331,76.288,111.149,80.391,108.078,83.961z"/>
		<path fill="#52735F" d="M103.521,90.718c1.636,0.797,4.121,1.766,5.765,2.382c0.842,0.315,1.464,0.539,1.633,0.599
			c0.713,0.25,0.165-1.205-0.404-3.194l0,0c-0.339-1.183,0.558-2.348,1.088-3.416c0.531-1.067-2.978-2.153-3.524-3.127l0,0
			c-0.547-0.974-1.648-4.073-2.285-2.595c-0.001,0-0.001,0.002-0.002,0.003c-0.477,1.107-2.423,5.109-3.379,7.066
			c-1.365,0.435-3.188,1.146-5.06,2.254c0.228,0.765,0.207,1.782-0.001,2.941C99.614,92.026,101.994,91.154,103.521,90.718z"/>
		<path fill="#EDD48A" d="M92.276,87.771c-0.254-0.029-0.509-0.049-0.767-0.059c1.641,2.001,1.366,7.817,0.236,12.514l0,0
			c2.049-0.288,3.566-0.629,3.22,0.043c-0.083,0.159-0.392,0.746-0.822,1.537c1.504-2.653,2.769-5.726,3.208-8.174
			c0.208-1.16,0.229-2.176,0.001-2.941c-0.109-0.368-0.271-0.683-0.503-0.921c-0.569-0.585-1.301-1.042-2.12-1.382
			C93.974,88.074,93.142,87.868,92.276,87.771z"/>
		<path fill="#EDD48A" d="M84.927,101.729c-3.109-3.538-6.591-8.249-5.466-10.558c0.245-0.503,0.563-0.967,0.926-1.398
			c-2.669,1.312-4.995,3.999-5.279,6.923c-0.212,2.178,3.32,4.823,6.938,6.938c-0.002-0.001-0.004-0.002-0.005-0.003
			C80.665,102.796,83.886,102.135,84.927,101.729z"/>
		<path fill="#F6E4BC" d="M84.927,101.729L84.927,101.729c1.041-0.406,2.604-3.73,3.587-3.056s2.014,1.724,3.231,1.553
			c1.13-4.697,1.404-10.513-0.236-12.514c-0.177-0.216-0.374-0.389-0.597-0.51c-0.706-0.383-1.535-0.572-2.401-0.655
			c-2.835-0.275-6.205,0.954-8.124,3.226c-0.363,0.431-0.681,0.895-0.926,1.398C78.336,93.48,81.818,98.191,84.927,101.729z"/>
		<path fill="#52735F" d="M91.354,111.088c-0.857-0.016-1.646,0.343-2.262,0.845c0.25-1.136,0.499-2.25,0.748-3.352
			c0.862-0.602,3.079-4.525,4.303-6.776c0.431-0.791,0.739-1.377,0.822-1.537c0.347-0.672-1.171-0.331-3.22-0.043
			c-1.218,0.171-2.248-0.878-3.231-1.553c-0.983-0.674-2.546,2.65-3.587,3.056s-4.263,1.067-2.882,1.906
			c0.863,0.524,3.578,2.342,5.502,3.636c0.434,0.292-1.867,8.49-2.06,9.398c-0.773,3.659-1.516,7.323-2.226,10.995
			c-4.954,25.639-8.517,51.694-8.889,77.844c0.826-1.409,1.694-2.802,2.604-4.179c0.394-14.063,1.751-28.395,3.623-42.173
			c2.665-0.321,7.93-5.51,8.783-6.811c0.47-0.716,0.866-1.477,1.253-2.241c2.603-5.136,4.806-10.473,6.583-15.949
			c-1.857,2.238-2.943,4.866-4.456,7.351c-1.005,1.651-2.414,2.865-3.735,4.275c-1.04,1.11-5.156,5.072-7.723,8.386
			c2.061-14.112,4.609-27.521,7.148-39.303c0.485,0.111,1.268-0.023,2.419-0.554c3.27-1.505,5.58-4.214,6.811-7.553
			C96.741,109.316,94.081,111.136,91.354,111.088z"/>
		<path fill="#52735F" d="M65.607,120.664c-1.096-0.423-1.468-1.777-1.975-2.796c-0.508-1.019-3.355,1.028-4.413,0.883
			c-1.057-0.145-4.051-1.09-3.292,0.247c0.785,1.383,1.291,2.915,2.077,4.303c0.376,0.663,0.771,1.239,1.338,1.749
			c0.858,0.77,0.907,2.458,1.167,3.583c0.493,2.132,1.209,4.205,2.082,6.212c-0.883-0.295-1.818-0.405-2.742-0.535
			c-2.088-0.295-4.186-0.751-6.046-1.744s-3.476-2.581-4.134-4.584c0.053,3.863,2.094,7.646,5.294,9.812
			c2.873,1.944,6.609,2.53,9.953,1.625c0.458,0.788,0.931,1.566,1.43,2.325c2.631,4.01,5.608,7.706,7.758,12.035
			c0.938,1.888,1.735,3.861,2.277,5.9c0.534,2.014,0.546,4.097,1.094,6.098c0.332,1.211,1.971,0.848,2.25-0.171
			c1.833-6.709-3.721-14.979-7.241-20.239c-2.341-3.496-4.834-6.911-6.798-10.641c-1.427-2.709-2.797-6.105-3.123-9.17
			c1.387-0.186,3.111-1.698,4.309-2.457c0.728-0.461,1.258-0.807,1.401-0.902C68.875,121.797,67.45,121.376,65.607,120.664z"/>
	</g>
	<g>
		<path fill="#52735F" d="M102.66,332.432c-1.078,1.824-1.174,4.078-0.879,6.18c0.354,2.525,1.166,4.936,1.29,7.498
			c0.169,3.512-0.3,7.449-2.312,10.424c-0.402,0.596-0.857,1.139-1.369,1.615c-3.839,3.578-17.154,4.275-16.815,9.252
			c-0.284-4.223,4.455-5.889,7.303-8.105c-3.655,1.563-7.499,0.916-11.277,3.166c2.347-3.611,6.873-4.455,10.815-4.938
			c-4.922-1.9-9.846-3.805-14.77-5.709c5.795,0.094,11.591,0.186,17.387,0.279c-1.153-2.172-2.944-3.904-5.085-4.932
			c3.031,1.072,5.88,2.625,8.42,4.607c-1.003-2.91-1.63-5.996-1.882-9.154c-0.254-3.195-0.026-6.484,0.113-9.68
			c0.032-0.715-0.046-1.598,0.152-2.277c-0.179,0.635,0.81,1.361,1.08,1.842c0.479,0.852,0.728,1.961,1.029,2.887
			c0.917,2.816,1.504,5.703,2.431,8.512c0.212,0.641,0.428,1.281,0.646,1.92c0.153,0.449,0.722,1.436,0.653,1.893
			C100.068,344.531,97.89,335.85,102.66,332.432z"/>
	</g>
	<g>
		<path fill="#EDD48A" d="M445.74,200.065c0.07,0.069,0.131,0.135,0.207,0.201c0.248,0.241,0.623,0.6,1.084,1.04
			c0.07,0.066,0.148,0.14,0.225,0.212c-0.789-0.748-1.369-1.31-1.564-1.502C445.707,200.031,445.721,200.046,445.74,200.065z"/>
		<path fill="#EDD48A" d="M449.6,198.64L449.6,198.64c-3.275-5.331-5.947-12.387-4.721-15.498c-0.096,0.035-0.191,0.07-0.279,0.109
			c-1.008,0.397-1.949,0.904-2.781,1.51c-1.168,0.85-2.113,1.893-2.688,3.064c-1.096,2.243,1.453,6.57,4.975,10.509
			c0.5,0.559,1.016,1.111,1.549,1.643C444.975,199.295,446.973,199.105,449.6,198.64z"/>
		<path fill="#EDD48A" d="M458.588,197.757c1.443,0.082,5.67-0.396,4.313,1.183c3.6-4.049,6.879-8.715,5.746-11.307
			c-1.523-3.488-5.471-5.87-9.283-6.409c0.625,0.386,1.207,0.833,1.715,1.358C463.389,184.971,460.994,192.16,458.588,197.757z"/>
		<path fill="#F6E4BC" d="M449.6,198.64c1.566-0.278,2.412-1.981,3.352-3.204s4.193,2.239,5.637,2.321l0,0
			c2.406-5.597,4.801-12.786,2.49-15.175c-0.508-0.525-1.09-0.972-1.715-1.358c-3.27-2.016-7.896-2.173-11.268-0.702
			c-1.031,0.45-1.975,1.015-2.689,1.769c-0.223,0.235-0.396,0.521-0.527,0.852C443.652,186.253,446.324,193.31,449.6,198.64z"/>
		<path fill="#EDD48A" d="M471.141,227.321L471.141,227.321c2.482-4.795,6.504-9.911,9.352-10.402
			c-1.822-1.463-4.016-2.338-6.008-2.167c-2.449,0.211-4.783,5.138-6.076,10.217C468.629,224.231,469.648,225.606,471.141,227.321z"
			/>
		<path fill="#EDD48A" d="M467.963,226.905c0.145-0.66,0.268-1.197,0.348-1.541C468.186,225.878,468.066,226.393,467.963,226.905z"
			/>
		<path fill="#EDD48A" d="M475.791,233.579c0.582,1.104,2.814,4.019,1.043,3.719c4.596,0.857,9.506,1.205,10.918-0.789
			c1.9-2.68,1.902-6.651,0.611-9.713c-0.008,0.631-0.08,1.254-0.242,1.859C487.383,231.428,481,232.864,475.791,233.579z"/>
		<path fill="#F6E4BC" d="M483.871,218.127c-0.791-0.563-1.629-1.009-2.504-1.202c-0.275-0.061-0.568-0.06-0.875-0.006
			c-2.848,0.491-6.869,5.607-9.352,10.402c0.902,1.035,2.539,0.902,3.861,1.051c1.322,0.15,0.209,4.102,0.789,5.207l0,0
			c5.209-0.715,11.592-2.15,12.33-4.924c0.162-0.605,0.234-1.229,0.242-1.859C488.408,223.473,486.463,219.969,483.871,218.127z"/>
		<path fill="#52735F" d="M457.178,206.143c2.467,12.299,3.904,23.979,4.316,35.04c1.637-3.221,3.582-5.674,5.197-7.355
			c0.234-2.021,0.844-4.984,1.27-6.922c0.148-0.659,0.27-1.2,0.348-1.541c0.041-0.168,0.072-0.295,0.088-0.362
			c0-0.013,0.008-0.022,0.012-0.029c0.029-0.103,0.078-0.165,0.139-0.19c0.379-0.156,1.311,1.065,2.596,2.541
			c0.902,1.033,2.537,0.9,3.857,1.047c1.322,0.152,0.209,4.104,0.791,5.209c0.516,0.975,2.318,3.369,1.51,3.701
			c-0.107,0.045-0.258,0.051-0.465,0.016c-1.26-0.209-5.795-0.766-8.313-1.074c-2.473,2.701-5.76,7.357-6.924,13.932
			c-0.027,2.597-0.127,5.167-0.283,7.691c0.01,0.02,0.006,0.027-0.004,0.031c-0.008,0.186-0.023,0.373-0.037,0.561
			c-1.66,25.256-9.369,46.775-23.078,64.303c-7.674,9.814-16.664,17.586-26.025,23.736c1.205-2.119,2.371-4.264,3.504-6.436
			c7.064-5.26,14.434-11.748,20.209-19.141c13.324-17.049,20.818-38.031,22.438-62.695c-0.926-2.785-3.943-11.05-9.768-19.425
			c-0.871-1.264-1.814-2.529-2.818-3.78c-1.631-2.023-3.434-4.007-5.414-5.862c0,0,0,0-0.002-0.006
			c-0.941,0.055-2.227,0.033-3.508-0.021c-1.004-0.041-2.01-0.1-2.844-0.156c-0.088-0.007-0.172-0.008-0.256-0.017
			c-0.877-0.058-1.527-0.11-1.705-0.128c-0.125-0.01-0.197-0.053-0.225-0.119c-0.133-0.326,0.779-1.271,1.859-2.533
			c0.008-0.009,0.016-0.019,0.023-0.027c0.779-0.92,0.457-2.319,0.414-3.488c-0.016-0.568,0.822-0.75,1.793-0.864
			c0.873-0.099,1.854-0.145,2.396-0.368c0.084-0.034,0.162-0.078,0.223-0.121c0.795-0.588,2.705-2.536,3.035-1.733
			c0.037,0.088,0.059,0.2,0.053,0.348c-0.02,0.983,0.055,4.198,0.113,6.473c1.494,1.354,2.895,2.77,4.189,4.211
			c1.035,1.148,2.006,2.316,2.918,3.492c4.625,5.932,7.814,12.066,9.834,16.685c0.234-13.343-1.145-27.692-4.15-43.026
			c-1.791-1.164-5.199-4.297-7.23-6.217c-0.785-0.748-1.367-1.308-1.561-1.501c-0.012-0.013-0.029-0.024-0.033-0.035
			c-0.004,0.002-0.006-0.003-0.006-0.003c-0.256-0.252-0.139-0.439,0.244-0.597c0.646-0.267,2.049-0.449,3.703-0.742
			c1.566-0.281,2.412-1.979,3.35-3.206c0.938-1.222,4.195,2.24,5.633,2.32l0.002,0.005c1.184,0.064,4.244-0.25,4.557,0.511
			c0.068,0.166,0.002,0.387-0.238,0.668C461.99,199.999,459.027,203.778,457.178,206.143z"/>
		<path fill="#EDD48A" d="M433.666,226.125L433.666,226.125c-4.473-1.535-9.422-4.363-10.213-6.771
			c-1.033,1.77-1.51,3.786-1.105,5.491c0.561,2.366,6.293,3.832,11.367,4.09c-0.881-0.06-1.529-0.113-1.705-0.129
			C431.273,228.741,432.352,227.667,433.666,226.125z"/>
		<path fill="#EDD48A" d="M438.49,221.284c0.883-0.646,3.121-2.96,3.09-1.385l0,0c0.152-4.098-0.178-8.402-2.086-9.372
			c-2.566-1.302-6.008-0.792-8.494,0.724c0.547-0.074,1.098-0.092,1.643-0.031C435.141,211.504,437.203,216.855,438.49,221.284z"/>
		<path fill="#F6E4BC" d="M433.666,226.125c0.781-0.916,0.455-2.318,0.416-3.484c-0.041-1.167,3.527-0.711,4.408-1.357l0,0
			c-1.287-4.428-3.35-9.78-5.848-10.063c-0.545-0.062-1.096-0.043-1.643,0.031c-2.885,0.39-5.672,2.529-6.934,5.015
			c-0.387,0.759-0.666,1.543-0.721,2.328c-0.018,0.248,0.021,0.502,0.107,0.761C424.244,221.762,429.193,224.59,433.666,226.125z"/>
	</g>
	<g>
		<path id="XMLID_4290_" fill="#52735F" d="M66.321,332.5c-2.277-0.318-4.595-0.479-6.93-0.482c2.242-1.531,4.713-2.73,7.277-3.531
			c-2.913-0.877-5.627-2.225-8.003-3.971c2.798-0.211,5.584-0.035,8.245,0.518c-1.055-2.098-1.847-4.334-2.355-6.656
			c1.604,1.508,3.211,3.018,4.816,4.525c-0.372-2.291-0.046-4.75,0.931-7.016c0.171,3.35,0.847,6.625,1.999,9.693
			c0.979-3.045,1.956-6.092,2.934-9.137c-0.614,2.607-0.638,5.283-0.068,7.781c1.442-2.299,2.886-4.598,4.328-6.896
			c-2.762,4.4-1.199,10.408-5.503,14.635c-3.564,3.5-10.225,4.809-14.803,5.635C61.478,335.807,63.937,334.182,66.321,332.5z"/>
		<path fill="#F0EFEF" d="M36.943,279.348c-5.244,5.895,2.773,18.215,6.184,23.039c1.271,1.801,2.775,3.805,4.72,4.922
			c2.719,2.055,5.797,2.807,8.804,0.314c5.847-4.844-0.351-16.227-3.352-20.814C50.469,282.484,42.568,273.023,36.943,279.348z"/>
		<path fill="#52735F" d="M49.167,312.639c-2.612,1.18-5.509,1.334-8.31,1.467c4.22-1.426,8.213-3.615,11.679-6.4
			c0.53-0.426,1.06-0.879,1.393-1.449c0.338-0.58,0.445-1.232,0.54-1.869c0.448-3.012,0.755-6.029,0.917-9.041
			c1.106,3.012,1.814,6.184,2.104,9.422c3.193-2.084,5.379-5.551,5.705-9.045c0.286,2.02,0.547,4.191-0.473,6.111
			c-0.746,1.406-2.083,2.48-3.082,3.758c-0.829,1.061-1.25,2.398-1.351,3.629C54.717,309.16,52.441,311.158,49.167,312.639z"/>
		<path fill="#52735F" d="M103.528,361.188c-5.814-3.803-11.334-8.039-16.459-12.609c-12.689-11.322-25.035-25.637-31.295-41.654
			c-0.389-0.99,1.07-1.918,1.668-0.965c4.59,7.303,8.908,14.668,14.201,21.506c5.287,6.836,11.216,13.156,17.695,18.871
			c3.316,2.93,6.754,5.662,10.299,8.219C100.891,356.793,102.184,359.01,103.528,361.188z"/>
	</g>
	<g>
		<path fill="#52735F" d="M196.383,80.539c-1.781,0.623-3.561,1.277-5.329,1.958c-0.793,0.309-1.592,0.62-2.38,0.939
			c-8.156,0.19-16.273,1.574-24.06,4.243c-0.18,0.057-0.357,0.119-0.535,0.181c-0.564,0.2-1.135,0.402-1.693,0.618
			c-11.293,4.224-21.469,10.891-29.825,19.35c-0.727,0.739-1.438,1.484-2.134,2.248c-5.235,5.7-9.679,12.135-13.135,19.129
			c-1.126,2.269-2.145,4.595-3.051,6.975c-1.688,1.825-3.345,3.694-4.956,5.595c0.625-2.172,1.346-4.315,2.143-6.427
			c1.687-4.472,3.747-8.796,6.141-12.904c0.568-0.978,1.154-1.944,1.766-2.895c2.556-4.024,5.441-7.811,8.598-11.272
			c3.345-3.663,6.987-7.011,10.878-10.012c1.234-0.953,2.496-1.872,3.783-2.759c11.271-7.765,24.318-12.784,37.911-14.495
			c1.254-0.152,2.508-0.286,3.771-0.386c0.005-0.002,0.005-0.002,0.005-0.002c3.713-0.298,7.467-0.346,11.22-0.138
			C195.794,80.5,196.087,80.517,196.383,80.539z"/>
		<path fill="#52735F" d="M197.667,60.304c-1.97,9.649-8.539,18.252-17.329,22.692c0.238-5.146,1.914-10.075,5.039-14.171
			C188.501,64.73,192.766,61.893,197.667,60.304z"/>
		<path fill="#52735F" d="M143.321,72.309c3.208,9.31,1.923,20.059-3.39,28.35c-2.411-4.553-3.473-9.65-2.863-14.765
			S139.908,76.167,143.321,72.309z"/>
		<path fill="#52735F" d="M111.777,95.887c6.335,7.54,8.99,18.034,7.006,27.68c-3.884-3.385-6.703-7.762-7.969-12.755
			C109.547,105.817,109.976,100.713,111.777,95.887z"/>
		<path fill="#52735F" d="M129.016,109.027c9.122-3.709,19.925-3.011,28.492,1.844c-4.415,2.654-9.446,3.991-14.587,3.661
			C137.78,114.202,133.055,112.225,129.016,109.027z"/>
		<path fill="#52735F" d="M161.817,87.246c9.791,1.057,18.972,6.792,24.216,15.127c-5.146,0.245-10.21-0.962-14.581-3.689
			C167.082,95.956,163.858,91.976,161.817,87.246z"/>
	</g>
	<g>
		<path fill="#52735F" d="M396.203,370.268c-0.17,0.613-0.354,1.225-0.543,1.832c-7.531,24.316-25.998,44.135-49.58,53.664
			c-13.566,5.482-29.129,7.346-43.938,5.141c2.383-0.691,4.746-1.424,7.094-2.191c1.48,0.098,2.973,0.152,4.477,0.17
			c24.621,0.215,48.393-10.936,64.096-29.895c5.688-6.861,10.123-14.627,13.234-22.893c0.664-0.723,1.32-1.445,1.977-2.178
			C394.098,372.711,395.156,371.5,396.203,370.268z"/>
		<path fill="#52735F" d="M415.332,377.098c-9.73-1.514-20.084,1.65-27.307,8.344c4.906,1.568,10.111,1.713,15.039,0.211
			C407.992,384.148,412.137,381.139,415.332,377.098z"/>
		<path fill="#52735F" d="M385.156,423.863c-7.611-6.25-18.135-8.787-27.758-6.693c3.43,3.844,7.838,6.613,12.846,7.824
			C375.25,426.203,380.35,425.719,385.156,423.863z"/>
		<path fill="#52735F" d="M352.07,445.223c-4.863-8.564-13.775-14.707-23.51-16.205c1.822,4.818,4.943,8.986,9.184,11.912
			S346.918,445.23,352.07,445.223z"/>
		<path fill="#52735F" d="M345.754,424.486c6.654-7.26,9.76-17.629,8.193-27.352c-4.025,3.215-7.031,7.467-8.512,12.4
			S344.162,419.588,345.754,424.486z"/>
		<path fill="#52735F" d="M377.594,401.322c2.418-9.545,0.238-20.148-5.748-27.967c-2.021,4.738-2.654,9.906-1.619,14.953
			S373.869,397.764,377.594,401.322z"/>
	</g>
	<path fill="#222B3B" d="M437.508,237.968l0.004-0.007c-0.064-0.711-0.141-1.421-0.209-2.129c-0.016-0.101-0.021-0.206-0.037-0.307
		c-0.232-2.105-0.498-4.217-0.809-6.314c0,0,0,0-0.002-0.006c-0.01-0.098-0.031-0.197-0.041-0.3
		c-0.33-2.269-0.705-4.536-1.125-6.792c-0.023-0.15-0.051-0.291-0.082-0.43c-1.975-10.553-4.893-20.997-8.746-31.247
		c-17.326-46.07-51.559-82.634-96.385-102.963c-43.104-19.534-91.038-21.823-135.62-6.566c-1.786,0.607-3.571,1.247-5.346,1.913
		c-0.796,0.302-1.597,0.605-2.388,0.918c-44.949,17.603-80.604,51.423-100.573,95.473c-8.133,17.93-13.271,36.697-15.41,55.708
		c-0.514,4.58-0.854,9.166-1.011,13.766c-0.872,24.05,3.038,48.273,11.765,71.486c1.826,4.855,3.839,9.596,6.035,14.229
		c1.813,3.84,3.752,7.596,5.811,11.277c0.344,0.619,0.703,1.246,1.06,1.867c0.849,1.477,1.719,2.945,2.611,4.393
		c19.054,31.098,46.921,55.807,80.871,71.203c44.826,20.316,94.888,21.977,140.964,4.646c0.971-0.367,1.93-0.736,2.891-1.111
		c2.182-0.865,4.336-1.764,6.471-2.693c28.814-12.641,53.498-32.113,72.234-56.738c0.561-0.738,1.113-1.473,1.662-2.219
		c0.91-1.23,1.797-2.465,2.67-3.717c0.445-0.633,0.883-1.264,1.316-1.904c2.803-4.121,5.457-8.371,7.945-12.742
		c1.137-2.002,2.232-4.025,3.305-6.078c1.566-3.004,3.061-6.066,4.469-9.182c8.904-19.631,14.223-40.271,15.926-61.133
		c0.121-1.369,0.219-2.734,0.297-4.104C438.59,256.777,438.42,247.354,437.508,237.968z"/>
	<g>
		<linearGradient id="SVGID_1_" gradientUnits="userSpaceOnUse" x1="79.3794" y1="255.5674" x2="428.0752" y2="255.5674">
			<stop  offset="0" style="stop-color:#FAF1A7"/>
			<stop  offset="0.0209" style="stop-color:#E0CE83"/>
			<stop  offset="0.0484" style="stop-color:#C9AF60"/>
			<stop  offset="0.0756" style="stop-color:#B89946"/>
			<stop  offset="0.1019" style="stop-color:#AD8B36"/>
			<stop  offset="0.127" style="stop-color:#A7822F"/>
			<stop  offset="0.1495" style="stop-color:#A5802D"/>
			<stop  offset="0.215" style="stop-color:#B29038"/>
			<stop  offset="0.3102" style="stop-color:#C2A449"/>
			<stop  offset="0.4029" style="stop-color:#CDB256"/>
			<stop  offset="0.4892" style="stop-color:#D2B75B"/>
			<stop  offset="0.5852" style="stop-color:#CEB256"/>
			<stop  offset="0.6853" style="stop-color:#C3A54A"/>
			<stop  offset="0.7868" style="stop-color:#B39139"/>
			<stop  offset="0.8616" style="stop-color:#A5802D"/>
			<stop  offset="0.8838" style="stop-color:#A7822F"/>
			<stop  offset="0.9067" style="stop-color:#AD8A35"/>
			<stop  offset="0.9301" style="stop-color:#B79744"/>
			<stop  offset="0.9538" style="stop-color:#C6AC5C"/>
			<stop  offset="0.9774" style="stop-color:#DBC87C"/>
			<stop  offset="1" style="stop-color:#FAF1A7"/>
		</linearGradient>
		<path fill="url(#SVGID_1_)" d="M253.645,429.922c-24.49,0-48.914-5.23-71.883-15.645c-42.394-19.229-74.766-53.809-91.154-97.369
			c-2.024-5.389-3.799-10.91-5.274-16.412c-0.432-1.582-0.838-3.18-1.208-4.748c-7.533-31.51-6.075-64.421,4.217-95.177
			c0.786-2.338,1.599-4.61,2.415-6.752c1.332-3.491,2.763-6.926,4.253-10.21c6.987-15.417,16.069-29.635,26.992-42.261
			c1.563-1.806,3.18-3.599,4.805-5.328c7.277-7.737,15.332-14.846,23.938-21.127c2.987-2.179,6.036-4.258,9.061-6.18
			c6.082-3.879,12.513-7.429,19.112-10.549c2.549-1.21,5.189-2.383,7.847-3.483c1.753-0.731,3.59-1.459,5.614-2.225
			c43.572-16.38,90.912-14.817,133.302,4.402c42.396,19.227,74.764,53.808,91.143,97.373c16.391,43.565,14.832,90.905-4.391,133.295
			l0,0c-18.406,40.58-51.191,72.244-92.316,89.16c-1.57,0.645-3.221,1.297-5.051,1.992
			C295.104,426.184,274.35,429.922,253.645,429.922z M253.795,83.315c-20.456,0-40.957,3.693-60.676,11.107
			c-2,0.755-3.815,1.475-5.549,2.198c-2.627,1.088-5.234,2.246-7.753,3.442c-6.521,3.083-12.875,6.59-18.884,10.423
			c-2.988,1.898-6,3.952-8.95,6.104c-8.501,6.205-16.457,13.227-23.646,20.869c-1.605,1.708-3.202,3.479-4.746,5.264
			c-10.791,12.473-19.764,26.521-26.668,41.754c-1.474,3.246-2.888,6.64-4.203,10.09c-0.807,2.116-1.609,4.361-2.387,6.672
			c-10.167,30.38-11.606,62.894-4.165,94.024c0.365,1.547,0.767,3.121,1.192,4.684c1.46,5.441,3.213,10.896,5.214,16.221
			c16.189,43.035,48.172,77.197,90.055,96.197c41.879,18.984,88.648,20.531,131.691,4.348c1.809-0.688,3.443-1.334,4.996-1.971
			c40.629-16.711,73.018-47.994,91.201-88.084l0,0c18.99-41.879,20.531-88.648,4.338-131.688
			c-16.18-43.04-48.158-77.204-90.045-96.199C302.119,88.482,277.988,83.315,253.795,83.315z"/>
	</g>
</g>
</svg>
